<svg id="Capa_1" data-name="Capa 1" xmlns="http://www.w3.org/2000/svg" viewBox="0 0 95 95">
  <defs>
    <style>
      .cls-1 {
        fill: #fff0b5;
      }
    </style>
  </defs>
  <title>play</title>
  <g>
    <path class="cls-1" d="M88.85,26.22A46.72,46.72,0,0,0,75.12,10.09a1.89,1.89,0,1,0-2.25,3A43.13,43.13,0,0,1,85.49,28,42.31,42.31,0,0,1,90.21,47.5,42.72,42.72,0,1,1,47.5,4.78,1.89,1.89,0,1,0,47.5,1,46.49,46.49,0,1,0,88.85,26.22Z"/>
    <path class="cls-1" d="M35.6,25.91a1.88,1.88,0,0,0-1,1.64V69.09a1.9,1.9,0,0,0,3.79,0V30.88l28,16.68L45.84,60.84a1.89,1.89,0,0,0,2,3.18L71.07,49.09a1.86,1.86,0,0,0,.86-1.62,1.9,1.9,0,0,0-.92-1.6L37.5,25.93A1.87,1.87,0,0,0,35.6,25.91Z"/>
  </g>
</svg>
