<svg id="Layer_1" data-name="Layer 1" xmlns="http://www.w3.org/2000/svg" xmlns:xlink="http://www.w3.org/1999/xlink" viewBox="0 0 48 48"><defs><style>.cls-1{fill:url(#linear-gradient);}.cls-2{fill:url(#linear-gradient-2);}.cls-3{fill:url(#linear-gradient-3);}.cls-4{fill:url(#linear-gradient-4);}</style><linearGradient id="linear-gradient" x1="40.29" y1="-1249.87" x2="27.86" y2="-1262.3" gradientTransform="matrix(1, 0, 0, -1, 0, -1227.23)" gradientUnits="userSpaceOnUse"><stop offset="0.63" stop-color="#f1dd97"/><stop offset="1" stop-color="#cbad59"/></linearGradient><linearGradient id="linear-gradient-2" x1="15.38" y1="-1263.02" x2="40.02" y2="-1220.34" gradientTransform="matrix(1, 0, 0, -1, 0, -1227.23)" gradientUnits="userSpaceOnUse"><stop offset="0" stop-color="#f1dd97"/><stop offset="1" stop-color="#cbad59"/></linearGradient><linearGradient id="linear-gradient-3" x1="41.67" y1="17.85" x2="32.42" y2="17.85" gradientTransform="matrix(1, 0, 0, 1, 0, 0)" xlink:href="#linear-gradient-2"/><linearGradient id="linear-gradient-4" x1="41.24" y1="28.58" x2="3.55" y2="28.58" gradientTransform="matrix(1, 0, 0, 1, 0, 0)" xlink:href="#linear-gradient-2"/></defs><title>48x48</title><path class="cls-1" d="M43.62,32.86c.88-2.22,1.82-7.15-1-7.15H29.35c-1.41,0-4.26.16-3.75-1.94-.75,2.07-2.82,6-1,8,1.17,1.31,3.27,1.07,4.85,1.07Z"/><path class="cls-2" d="M27.44,32.85H21.53c-3.41,0-4.56-3.47-3.92-6.38,1-4.52,6.69-14.58,8.71-19a13.58,13.58,0,0,0-4.84-.16c6.31-3,9.07-4.38,15.08-7.28-3.79,8.45-6.5,13.58-10.28,22-.3.65-2.38,6.18-2.3,8.08S25.52,32.6,27.44,32.85Z"/><path class="cls-3" d="M39.54,23.55h2.13a19.44,19.44,0,0,0-8.39-11.4h0L32.4,14A17.2,17.2,0,0,1,39.54,23.55Z"/><path class="cls-4" d="M39,35a17.36,17.36,0,1,1-17-23.82l1-2h-.17A19.42,19.42,0,1,0,41.24,35Z"/></svg>