<svg id="Layer_1" data-name="Layer 1" xmlns="http://www.w3.org/2000/svg" xmlns:xlink="http://www.w3.org/1999/xlink" viewBox="0 0 16 16"><defs><style>.cls-1{fill:url(#linear-gradient);}.cls-2{fill:url(#linear-gradient-2);}.cls-3{fill:url(#linear-gradient-3);}.cls-4{fill:url(#linear-gradient-4);}</style><linearGradient id="linear-gradient" x1="13.43" y1="-1234.78" x2="9.29" y2="-1238.92" gradientTransform="matrix(1, 0, 0, -1, 0, -1227.23)" gradientUnits="userSpaceOnUse"><stop offset="0.63" stop-color="#f1dd97"/><stop offset="1" stop-color="#cbad59"/></linearGradient><linearGradient id="linear-gradient-2" x1="5.13" y1="-1239.16" x2="13.34" y2="-1224.94" gradientTransform="matrix(1, 0, 0, -1, 0, -1227.23)" gradientUnits="userSpaceOnUse"><stop offset="0" stop-color="#f1dd97"/><stop offset="1" stop-color="#cbad59"/></linearGradient><linearGradient id="linear-gradient-3" x1="13.89" y1="5.95" x2="10.81" y2="5.95" gradientTransform="matrix(1, 0, 0, 1, 0, 0)" xlink:href="#linear-gradient-2"/><linearGradient id="linear-gradient-4" x1="13.75" y1="9.53" x2="1.18" y2="9.53" gradientTransform="matrix(1, 0, 0, 1, 0, 0)" xlink:href="#linear-gradient-2"/></defs><title>16x16</title><path class="cls-1" d="M14.54,11c.29-.74.61-2.38-.34-2.38H9.78c-.47,0-1.42,0-1.25-.65-.25.69-.94,2-.34,2.67.39.44,1.09.36,1.62.36Z"/><path class="cls-2" d="M9.15,11h-2C6,11,5.66,9.79,5.87,8.82,6.2,7.32,8.1,4,8.77,2.48a4.58,4.58,0,0,0-1.61,0l5-2.43C10.92,2.82,10,4.53,8.76,7.34A11.33,11.33,0,0,0,8,10C8,10.68,8.51,10.87,9.15,11Z"/><path class="cls-3" d="M13.18,7.85h.71a6.48,6.48,0,0,0-2.8-3.8h0l-.29.62A5.72,5.72,0,0,1,13.18,7.85Z"/><path class="cls-4" d="M13,11.67a5.59,5.59,0,0,1-.52,1A5.79,5.79,0,1,1,7.36,3.73l.34-.68H7.64a6.48,6.48,0,1,0,6.11,8.62Z"/></svg>