<svg id="Layer_1" data-name="Layer 1" xmlns="http://www.w3.org/2000/svg" xmlns:xlink="http://www.w3.org/1999/xlink" viewBox="0 0 13.93 16"><defs><style>.cls-1{fill:url(#linear-gradient);}.cls-2{fill:url(#linear-gradient-2);}</style><linearGradient id="linear-gradient" x1="12.48" y1="991.48" x2="5.73" y2="998.22" gradientTransform="translate(0 -982)" gradientUnits="userSpaceOnUse"><stop offset="0.63" stop-color="#f1dd97"/><stop offset="1" stop-color="#cbad59"/></linearGradient><linearGradient id="linear-gradient-2" x1="-0.88" y1="999.58" x2="11.19" y2="978.66" gradientTransform="translate(0 -982)" gradientUnits="userSpaceOnUse"><stop offset="0" stop-color="#f1dd97"/><stop offset="1" stop-color="#cbad59"/></linearGradient></defs><title>16x16</title><path class="cls-1" d="M13.93,12.62H5c-1,0-1.19-.31-1.06-.83h0a7.64,7.64,0,0,0-1,3c0,.89.93,1.16,1.77,1.18h7.56Z"/><path class="cls-2" d="M4.89,16H2C.13,16-.26,14.59.16,13,.7,10.9,2.84,7,3.78,5A6,6,0,0,0,1.54,5c3.05-1.8,8-5,8-5S6,7.14,4.22,11.05a15.93,15.93,0,0,0-1.11,3.49C3,15.44,4,15.83,4.89,16Z"/></svg>