<svg id="Layer_1" data-name="Layer 1" xmlns="http://www.w3.org/2000/svg" xmlns:xlink="http://www.w3.org/1999/xlink" viewBox="0 0 16 16"><defs><style>.cls-1,.cls-2{fill-rule:evenodd;}.cls-1{fill:url(#linear-gradient);}.cls-2{fill:url(#linear-gradient-2);}</style><linearGradient id="linear-gradient" x1="13.55" y1="9.49" x2="6.85" y2="16.18" gradientUnits="userSpaceOnUse"><stop offset="0.63" stop-color="#f1dd97"/><stop offset="1" stop-color="#cbad59"/></linearGradient><linearGradient id="linear-gradient-2" x1="0.08" y1="17.6" x2="12.23" y2="-3.45" gradientUnits="userSpaceOnUse"><stop offset="0" stop-color="#f1dd97"/><stop offset="1" stop-color="#cbad59"/></linearGradient></defs><title>16x16</title><path class="cls-1" d="M15,12.62H6c-1,0-1.19-.31-1.07-.84h0a9.12,9.12,0,0,0-.76,3c0,.9.71,1.15,1.61,1.27h7.59Z"/><path class="cls-2" d="M5.77,16H3c-1.86,0-2.25-1.37-1.83-3,.55-2.08,2.71-6,3.65-8A6.06,6.06,0,0,0,2.59,5c3.07-1.81,8-5,8-5S7,7,5.23,11a5.4,5.4,0,0,0-.31.81,8.87,8.87,0,0,0-.76,3C4.19,15.63,4.87,15.88,5.77,16Z"/></svg>