<svg id="Layer_1" data-name="Layer 1" xmlns="http://www.w3.org/2000/svg" xmlns:xlink="http://www.w3.org/1999/xlink" viewBox="0 0 16 16"><defs><style>.cls-1{fill:#29292b;}.cls-2,.cls-3{fill-rule:evenodd;}.cls-2{fill:url(#linear-gradient);}.cls-3{fill:url(#linear-gradient-2);}</style><linearGradient id="linear-gradient" x1="5.41" y1="10.59" x2="12.76" y2="-2.13" gradientUnits="userSpaceOnUse"><stop offset="0" stop-color="#f1dd97"/><stop offset="1" stop-color="#cbad59"/></linearGradient><linearGradient id="linear-gradient-2" x1="14.98" y1="4.99" x2="10.15" y2="9.82" gradientUnits="userSpaceOnUse"><stop offset="0.63" stop-color="#f1dd97"/><stop offset="1" stop-color="#cbad59"/></linearGradient></defs><title>Artboard 1</title><path class="cls-1" d="M11.79,4.22a6.2,6.2,0,0,0-1.15-.89c-.47,1-.94,1.92-1.36,2.86a3.26,3.26,0,0,0-.2.53h0a.15.15,0,0,0,.11.18l.34,0h3.79A5.44,5.44,0,0,0,13,6.06,5.85,5.85,0,0,0,11.79,4.22Z"/><path class="cls-2" d="M9.37,9.69h-2c-1.34,0-1.62-1-1.32-2.14A52.07,52.07,0,0,1,8.7,1.76a4.45,4.45,0,0,0-1.63,0C9.4,1,11.91,0,11.91,0s-1.66,3.2-2.93,6a3.66,3.66,0,0,0-.22.58,6.51,6.51,0,0,0-.55,2.13C8.24,9.42,8.73,9.6,9.37,9.69Z"/><path class="cls-3" d="M16,7.25H9.53c-.72,0-.86-.23-.77-.61h0a6.45,6.45,0,0,0-.55,2.13c0,.65.52.83,1.16.92h5.48Z"/><path class="cls-1" d="M9.37,10h-2A1.67,1.67,0,0,1,6,9.42a2.23,2.23,0,0,1-.21-1.95A21.94,21.94,0,0,1,7.59,3.26L8,2.53H7.7A5.76,5.76,0,0,0,5.45,3,5.91,5.91,0,0,0,3.61,4.22a5.81,5.81,0,0,0-1.7,4.1,5.81,5.81,0,0,0,1.7,4.09A5.79,5.79,0,0,0,13,10.57a4.05,4.05,0,0,0,.2-.55Z"/></svg>