<svg xmlns="http://www.w3.org/2000/svg" width="302.251" height="302.424" viewBox="0 0 302.251 302.424">
  <defs>
    <style>
      .cls-1 {
        fill: none;
        stroke: #f2f2f2;
        stroke-miterlimit: 10;
      }
    </style>
  </defs>
  <g id="Group_1" data-name="Group 1" transform="translate(-4477.412 -953.695)">
    <path id="Path_1" data-name="Path 1" class="cls-1" d="M4779.5,994.05c-3.86,1.33-7.46,2.48-10.77,5.41-4.42,3.9-5.35,15.65-2.81,20.83a31.648,31.648,0,0,1,1.51,3.37c2.01,5.75-.21,10.15-6.42,12.65a24.057,24.057,0,0,1-4.85,1.37,77.864,77.864,0,0,1-31.38-.86c-2.61-.62-5.19-1.36-8.07-2.12-.26,1.57-.57,2.89-.67,4.22a100.1,100.1,0,0,1-5.41,24.03c-1.08,3.18-2.01,6.42-2.88,9.66-.62,2.31-.46,4.64,1.72,6.3,2.67,2.02,5.53,3.84,8.19,5.67,1.25-.85,1.92-1.31,2.6-1.76,8.32-5.49,17.13-4.63,23.23,2.77a36.333,36.333,0,0,1,6.28,10.82c4.58,13.12-3.61,24.26-18.93,25.99-3.49.39-7.35.58-10.62-.33-5.39-1.51-8.85.59-12.18,3.59a48.419,48.419,0,0,0-4.96,5.18,13.54,13.54,0,0,0-3.12,11.58c2.14,11.69,6.26,22.91,9.8,34.54,1.59-.5,2.9-.79,4.1-1.28,11.6-4.81,23.85-6.04,36.46-5.16,4.43.31,8.8,1.05,12.66,3.21,4.35,2.43,5.92,5.62,4.82,10.08a29.066,29.066,0,0,1-1.95,5.16c-2.64,5.63-1.08,10.4,3.73,14.45a29.976,29.976,0,0,0,9.92,5.63m-34.33-108.02a23.668,23.668,0,0,0-7.46-13.72c-3.94-3.71-8.68-3.99-13.26-.87-2.01,1.37-3.79,3-5.97,4.75-2.84-1.76-5.96-3.87-9.26-5.71-7.03-3.9-8.46-9.49-6.45-16.18,1.28-4.24,2.64-8.47,3.95-12.7,2.44-7.92,4.25-15.91,3.71-24.09a62.335,62.335,0,0,0-26.56-6.27c-7.71-.12-15.38.11-22.63,2.79-6.22,2.29-7.16,4.5-4.42,9.77.22.41.45.82.66,1.24,3.39,6.71,2.98,13.31-1.2,19.6-6.42,9.67-16.42,14.03-28.67,13.76-11.65-.26-17.6-5.01-16.72-15.64.46-5.59.83-11.19,1.22-16.78.34-4.97-1.12-7.14-6.33-9.18a39.25,39.25,0,0,0-5.31-1.6c-8.74-2.06-17.56-1.75-26.39-.52-3.96.55-7.91,1.24-11.81,1.86,2.19,7.65,4.55,14.76,6.23,21.99,2.03,8.76,3.65,17.62,1.87,26.62-1.74,8.81-6.74,12.85-16.73,13.91a43.339,43.339,0,0,1-20.98-2.57c-4.64-1.84-7.15-1.24-10.29,2.2a21.962,21.962,0,0,0-5.95,15.17c-.01,6.29,3.11,9.1,10.2,9.52,1.86.11,3.75-.09,5.62-.07a101.934,101.934,0,0,1,10.21.3c8.26.97,14.19,4.93,17.37,11.82a25.546,25.546,0,0,1,2.08,6.99,145.19,145.19,0,0,1,.45,35.41c-.14,1.46-.22,2.94-.34,4.61,9.87,1.87,19.42,3.51,29.16,2.76a64.751,64.751,0,0,0,13.93-2.68c6.05-1.87,7.41-4.38,6.99-10.11-.45-6.2-1.05-12.41-1.12-18.61-.08-7.27,4.24-11.7,12.34-12.76,8.37-1.1,16.46-.01,23.46,4.42,9.08,5.75,14.47,13.31,12.41,23.69-.52,2.63-2,5.12-3.14,7.64-1.46,3.2-1.24,4.8,1.95,6.61a26.8,26.8,0,0,0,7.43,2.88,69.4,69.4,0,0,0,22.83,1.4,58.432,58.432,0,0,0,16.07-3.68c-.28-1.07-.43-1.65-.59-2.23q-4.5-15.855-9.01-31.71c-2.21-7.76.35-14.46,6.25-20.12,2.98-2.86,6.65-5.16,10.02-7.7,1.7-1.28,3.49-1.26,5.7-.88a59.225,59.225,0,0,0,12.64,1.18C4739.7,1117.05,4746.52,1109.75,4745.17,1101.03ZM4477.5,1209.07c.84.15,1.72.26,2.62.33,9,.74,16.42,1.61,19.48-6.05.91-2.27,1.7-3.68,1.83-6.05.26-4.52.11-9.07-.07-13.59-.25-5.93,2.32-9.12,8.85-10.35a27.688,27.688,0,0,1,6.61-.49c8.49.49,16.99,1.06,25.46,1.78,4.52.39,8.99,1.15,13.81,1.79.28-1.79.53-3.11.7-4.44a140.609,140.609,0,0,0,.07-30.42c-1.26-13.58-7.86-18.86-23.21-18.45-3.23.09-6.49.2-9.71-.03-6.66-.47-10.96-3.83-12.54-9.64-1.83-6.71-.07-13.01,3.49-18.87,5.2-8.59,11.96-11.44,21.87-7.19,5.73,2.45,11.85,2.62,18.02,1.33,6.68-1.4,9.18-3.81,10.12-9.86.14-.9.19-1.81.25-2.72.68-10.89-1.68-21.42-4.89-31.83-1.2-3.89-2.73-7.69-4.12-11.57-2.15.2-3.66.31-5.17.48-9.13,1.03-18.23,2.31-27.39,2.99a60.926,60.926,0,0,1-14.21-.75c-5.74-.93-8.24-4.32-8-9.49.08-1.52.35-3.02.47-4.53a35.032,35.032,0,0,0-2.52-17.44c-3.23-7.3-10-10.79-19.59-10.28-.76.04-1.51.12-2.23.23M4597.27,1256c1.32-5.39-1.08-11.1-5.15-15.93-3.94-4.67-6.96-5.41-12.75-2.5-2.52,1.27-4.89,2.8-7.51,3.87-5.76,2.35-10.84.96-14-3.94a25.142,25.142,0,0,1-3.1-7.16c-3.05-11.65-3.17-23.44-1.52-35.26.61-4.34,1.29-8.67,2.03-13.64-8.16-1.02-15.55-2.14-22.98-2.83a154.389,154.389,0,0,0-17.86-.7c-5.21.13-8.49,1.57-7.23,7.71a34.56,34.56,0,0,1-3,22.31c-4.15,8.5-13.54,7.24-24.46,6.55-.76-.05-1.51-.12-2.24-.21M4662.86,1256c-1.21-5.85-4.04-11.72-.64-17.46,2.93-4.95,11.66-7.55,18.22-7.22a35.1,35.1,0,0,1,19.86,7.46c1.63,1.24,3.3,2.45,5.37,3.98,1.46-1.92,2.95-3.27,3.61-4.89a50.224,50.224,0,0,0,3.16-10c1.23-6.96.4-13.93-1.01-20.81-1.55-7.57-3.41-15.09-5.23-23a81.418,81.418,0,0,1-31.29,3.71c-6.16-.4-12.21-1.31-17.79-3.77-7.25-3.2-9.19-8.06-6.09-14.69.59-1.26,1.27-2.48,1.88-3.73a11.8,11.8,0,0,0,.49-9.33c-4.44-12.85-19.59-16.88-28.54-15.3-6.34,1.12-8.58,3.23-8.43,8.99a165.825,165.825,0,0,0,1.44,17.66c.78,5.83-1.6,10.1-7.04,13.06a32.843,32.843,0,0,1-7.02,2.63c-9.5,2.58-19.19,2.32-28.9,1.29-4.51-.49-9-1.2-13.8-1.85-2.45,12.14-4.42,23.96-2.68,35.97a71.323,71.323,0,0,0,3.28,14.18c1.86,5.08,4.62,5.69,9.76,3.07,2.65-1.35,5.19-2.93,7.95-4.1a14.251,14.251,0,0,1,13.97,1.38c7.69,4.98,10.96,14.29,9.55,22.77m176.56-41.7a37.51,37.51,0,0,1-12.49-6.01,18.913,18.913,0,0,1-7.91-11.87c-.84-4.27.97-8.03,2.56-11.87,1.61-3.9.98-5.75-3.31-7.17a43.92,43.92,0,0,0-9.93-1.88,70.672,70.672,0,0,0-36.78,6.74c1.85,8.16,3.84,15.98,5.37,23.86,1.63,8.39,2.76,16.9.5,25.3a42.659,42.659,0,0,1-5.38,12.15c-2.94,4.49-8.15,4.8-12.65,1.47-1.18-.88-2.25-1.86-3.42-2.74a30.835,30.835,0,0,0-14.19-5.9c-4.5-.69-11.98.7-14.43,4.21-3.01,4.31.12,10.2,1.33,15.41m.06-302a13.839,13.839,0,0,0,5.02,9.13c4.91,4.23,17.78,6.12,24.71,5.44,7.35-.71,12.28,1.87,14.72,8.03a30.3,30.3,0,0,1,2.13,9.75c.56,12.72.78,25.45,1.12,38.18.04,1.48.01,2.96.01,4.28a69.195,69.195,0,0,0,38.02,4.08c7.64-1.26,9.04-3.75,6.33-10.07-.37-.85-.76-1.69-1.05-2.56-1.69-5.07-1.17-16.94,2.16-21.37,4.26-5.67,10.67-8.3,17.5-10.11M4602.94,954c2.13,3.76,1.21,8.06,1.04,12.68-.32,8.71-8.63,13.97-18.38,15.47-8.08,1.24-15.98.04-23.86-1.21-6.3-1.01-7.7-.26-8.77,5.44a10.879,10.879,0,0,0-.25,2.72c.43,6.19.57,12.42,1.48,18.56a65.905,65.905,0,0,0,5.74,18.89c1.35-.15,2.52-.23,3.67-.42,9.41-1.54,18.83-2.89,28.45-2.24a52.2,52.2,0,0,1,17.29,3.73c6.65,2.88,9.21,7.53,8.45,14.1-.66,5.72-1.22,11.47-1.37,17.22-.17,6.11,2.39,8.47,9.18,9.38,10.49,1.4,22.12-4.16,26.63-12.75,2.29-4.35,2.65-8.72.15-13.13a36.245,36.245,0,0,1-1.87-3.74c-2.22-5.27-.74-9.59,4.66-12.55a31.939,31.939,0,0,1,7.94-3.06,73.779,73.779,0,0,1,27.89-1.35c6.5.97,12.85,2.72,19.5,4.18a18.324,18.324,0,0,0,.37-2.87c-.21-10.91-.33-21.83-.78-32.73a43.445,43.445,0,0,0-1.91-11.18c-1.45-4.63-3.69-5.69-9.06-5.47a35.692,35.692,0,0,1-3.58.13c-10.43-.61-25.99-4.28-30.36-13.07a19.819,19.819,0,0,1-2.05-6.73M4477.5,988.82c10.81-1.48,23.33,2.46,27.86,15.02a42.014,42.014,0,0,1,1.84,20.7c-.62,4.15.34,5.7,4.87,6.34a44.781,44.781,0,0,0,9.68.37c8.15-.63,16.27-1.53,24.39-2.41,2.48-.26,4.93-.8,7.58-1.24a12.035,12.035,0,0,0-.36-2.09,93.081,93.081,0,0,1-6.39-31.19,38.747,38.747,0,0,1,1.27-11.69c1.69-6.2,5.47-8.09,12.51-7.05,3.19.47,6.35,1.2,9.56,1.5,5.59.53,11.2,1.04,16.75-.4,4.35-1.13,8.84-3.64,9.92-7.55a23.332,23.332,0,0,0,1.13-9.83c-.19-2.041.32-3.7-.91-5.3"/>
  </g>
</svg>
