<?xml version="1.0" standalone="no"?>
<!DOCTYPE svg PUBLIC "-//W3C//DTD SVG 20010904//EN"
 "http://www.w3.org/TR/2001/REC-SVG-20010904/DTD/svg10.dtd">
<svg version="1.0" xmlns="http://www.w3.org/2000/svg"
 width="240.000000pt" height="240.000000pt" viewBox="0 0 240.000000 240.000000"
 preserveAspectRatio="xMidYMid meet">
<metadata>
Created by potrace 1.11, written by Peter Selinger 2001-2013
</metadata>
<g transform="translate(0.000000,240.000000) scale(0.100000,-0.100000)"
fill="#000000" stroke="none">
<path d="M1096 2392 c16 -11 10 -37 -8 -37 -10 0 -23 -6 -30 -13 -6 -6 -8 -12
-3 -12 4 0 0 -9 -11 -21 -10 -11 -14 -20 -9 -19 21 5 29 -1 15 -10 -10 -6 -11
-10 -2 -10 6 0 12 -5 12 -11 0 -5 -4 -8 -8 -5 -5 3 -9 -1 -9 -8 0 -8 6 -12 13
-9 9 3 12 -2 9 -17 -2 -12 2 -23 10 -27 8 -3 12 -9 9 -14 -3 -5 2 -6 10 -3 9
3 16 2 16 -4 0 -5 7 -13 16 -16 10 -4 13 -2 8 7 -6 9 -4 9 7 2 18 -13 73 -20
66 -8 -3 5 3 9 13 9 16 0 17 -3 7 -16 -10 -13 -10 -13 5 -2 9 8 22 11 27 8 5
-4 13 -1 17 5 4 7 3 9 -4 5 -6 -3 -13 -2 -17 4 -6 9 17 15 40 10 5 -1 7 2 2 6
-4 4 1 16 10 27 10 11 12 17 6 13 -7 -4 -13 -3 -13 3 0 5 7 14 16 19 14 8 14
10 -2 17 -18 7 -18 8 1 15 19 8 19 9 -3 9 -20 1 -21 3 -11 24 11 19 11 21 -3
9 -13 -10 -18 -10 -24 -1 -4 8 -3 9 4 5 7 -4 12 -1 12 8 0 15 -12 21 -35 16
-5 -1 -4 4 3 11 29 30 13 37 -80 37 -50 0 -87 -3 -82 -6z m-19 -57 c0 -8 -4
-12 -9 -9 -5 3 -6 10 -3 15 9 13 12 11 12 -6z m223 -119 c0 -2 -8 -10 -17 -17
-16 -13 -17 -12 -4 4 13 16 21 21 21 13z m-196 -18 c-3 -4 -11 -5 -19 -1 -21
7 -19 12 4 10 11 0 18 -5 15 -9z"/>
<path d="M1191 2096 c-11 -13 -9 -15 9 -11 13 2 20 1 16 -2 -9 -9 -55 -12 -54
-4 2 18 -4 22 -17 11 -8 -7 -15 -9 -15 -5 0 4 -7 2 -16 -6 -13 -10 -17 -10
-25 2 -5 8 -9 9 -9 4 0 -6 4 -15 10 -21 6 -6 -1 -10 -21 -9 -16 0 -35 7 -40
15 -8 11 -9 10 -4 -8 6 -20 4 -21 -20 -12 -17 7 -24 7 -20 0 9 -14 -9 -12 -24
3 -7 6 -12 8 -11 2 4 -21 -1 -30 -9 -17 -7 11 -11 11 -24 -2 -17 -18 -32 -21
-22 -6 5 9 -6 9 -45 0 -3 0 4 -8 15 -16 19 -15 19 -15 -9 -8 -20 5 -27 3 -22
-4 3 -6 2 -13 -3 -16 -5 -4 -13 -1 -17 5 -5 8 -3 9 6 4 8 -5 11 -4 6 3 -10 16
-38 2 -31 -16 4 -11 2 -12 -8 -4 -20 17 -56 11 -49 -8 5 -13 3 -13 -11 -1 -15
12 -17 12 -11 -4 5 -12 4 -16 -4 -11 -6 4 -17 -2 -23 -13 -7 -10 -18 -17 -25
-14 -6 2 -15 -1 -19 -7 -6 -9 -9 -9 -15 -1 -5 9 -10 7 -20 -4 -11 -13 -10 -15
3 -10 8 4 18 1 22 -5 3 -6 3 -9 -2 -8 -12 3 -53 -12 -53 -21 0 -4 -15 -17 -33
-30 l-32 -22 28 25 c32 29 28 34 -8 10 -14 -9 -25 -24 -25 -34 0 -11 -7 -17
-17 -16 -11 0 -17 -6 -17 -16 1 -10 -1 -17 -5 -16 -19 2 -31 -3 -26 -12 3 -5
-1 -10 -9 -10 -9 0 -16 -5 -16 -11 0 -5 6 -7 12 -3 10 6 10 4 0 -8 -7 -9 -22
-15 -34 -13 -16 4 -18 2 -8 -10 10 -12 10 -15 0 -15 -8 0 -10 -3 -7 -7 9 -8
-12 -33 -27 -33 -6 0 -3 5 7 11 9 6 15 15 11 20 -8 14 -33 -22 -27 -38 3 -8
-3 -13 -17 -13 -19 0 -20 -1 -6 -16 20 -20 20 -25 -1 -17 -12 5 -15 2 -10 -10
4 -12 2 -14 -10 -10 -11 4 -14 2 -9 -5 4 -7 2 -12 -3 -12 -6 0 -11 -7 -11 -15
0 -8 -8 -15 -17 -15 -15 0 -14 -2 3 -16 10 -8 13 -13 7 -9 -7 3 -13 1 -13 -5
0 -6 -5 -8 -12 -4 -7 5 -8 3 -2 -7 12 -20 14 -40 3 -33 -5 3 -9 0 -9 -5 0 -6
-8 -11 -17 -11 -15 0 -16 -2 -3 -10 10 -6 11 -10 3 -10 -7 0 -13 -9 -13 -21 0
-13 -4 -18 -12 -13 -7 5 -8 3 -2 -7 14 -23 14 -41 -1 -35 -10 3 -12 0 -8 -11
4 -11 2 -14 -5 -9 -8 5 -10 2 -6 -8 3 -9 9 -14 13 -12 4 3 7 -4 7 -15 0 -11
-4 -15 -9 -10 -5 5 -15 7 -22 5 -10 -4 -13 -61 -14 -240 -2 -207 0 -233 13
-228 9 3 13 11 9 17 -4 6 -1 7 7 2 10 -6 7 -13 -11 -27 l-24 -20 23 5 c13 3
21 3 18 0 -3 -4 -1 -12 5 -19 7 -8 6 -14 -2 -20 -8 -5 -9 -3 -4 6 6 9 4 11 -5
5 -8 -5 -11 -4 -7 2 3 5 0 10 -8 10 -13 0 -13 -3 1 -18 9 -10 23 -15 32 -12
14 5 13 2 -3 -16 -11 -13 -14 -21 -6 -19 7 2 17 -8 22 -21 7 -19 7 -22 -4 -15
-7 5 -5 2 5 -8 20 -18 25 -54 6 -42 -7 5 -8 3 -4 -5 5 -7 15 -10 23 -7 11 4
13 2 9 -9 -3 -8 -1 -15 5 -15 5 0 9 -8 7 -17 -2 -10 2 -17 8 -16 7 1 9 -8 6
-22 -2 -15 0 -25 7 -25 7 0 9 -5 6 -10 -4 -6 -3 -10 2 -9 18 3 34 -1 30 -8 -7
-11 19 -33 29 -25 4 4 4 1 0 -6 -6 -11 -11 -11 -23 0 -15 12 -15 11 -3 -9 8
-12 16 -21 19 -21 22 1 47 -17 48 -35 1 -12 7 -23 13 -25 5 -2 10 -10 10 -18
0 -9 4 -13 9 -10 4 3 16 -3 26 -14 10 -11 22 -17 26 -14 5 3 6 -2 3 -10 -4
-10 -1 -16 9 -16 9 0 19 -5 23 -12 4 -7 3 -8 -4 -4 -7 4 -12 2 -12 -3 0 -6 7
-11 15 -11 8 0 15 -4 15 -10 0 -5 8 -10 19 -10 10 0 25 -8 32 -17 12 -14 12
-15 1 -9 -11 7 -12 4 -3 -13 7 -11 14 -21 17 -21 3 0 3 4 -1 9 -3 6 4 9 15 8
12 -1 18 -7 16 -14 -3 -7 -2 -12 2 -12 24 4 34 -3 28 -18 -4 -10 -4 -14 0 -10
4 4 16 -1 27 -10 11 -10 17 -12 13 -5 -11 18 5 15 21 -6 8 -9 12 -11 8 -5 -3
7 -1 13 4 13 6 0 11 -8 11 -17 0 -14 2 -15 9 -4 10 15 31 7 31 -12 0 -7 -4 -6
-11 3 -9 12 -10 12 -7 1 6 -22 28 -25 29 -4 0 15 2 15 9 -3 12 -31 26 -37 51
-23 19 10 21 9 16 -4 -4 -12 -2 -14 11 -10 9 4 20 11 23 16 4 5 10 0 14 -12 6
-21 25 -29 25 -11 0 6 4 10 9 10 5 0 8 -11 7 -24 l-3 -25 253 0 c162 0 254 4
254 10 0 6 -5 7 -10 4 -5 -3 -10 -2 -10 2 0 14 34 30 62 29 14 -1 24 2 22 6
-5 8 4 10 78 11 25 1 44 5 42 9 -3 5 2 11 10 14 9 3 16 11 16 17 0 5 -9 2 -19
-7 -15 -14 -21 -15 -27 -4 -4 7 -4 10 1 6 4 -4 15 -2 23 4 19 16 44 19 35 5
-5 -8 -2 -8 9 0 8 7 19 9 23 5 5 -4 5 -1 1 6 -4 7 -1 12 8 12 9 0 16 -6 16
-12 0 -10 3 -9 9 1 5 7 6 23 4 35 -4 16 -2 18 5 7 8 -12 14 -12 25 -3 7 7 18
8 22 4 5 -4 5 -1 1 6 -6 11 -11 11 -24 0 -15 -12 -16 -11 -3 4 7 10 17 15 22
12 5 -2 18 7 30 20 18 21 25 24 38 13 12 -10 14 -9 9 4 -6 17 26 44 42 34 5
-3 12 0 16 6 4 7 3 9 -4 5 -6 -3 -13 -2 -17 4 -3 5 -1 10 5 10 6 0 9 4 6 9 -4
5 8 12 25 16 19 4 29 12 25 20 -4 12 13 33 41 49 9 5 11 1 7 -11 -5 -15 -4
-15 4 -3 8 10 7 18 0 28 -9 10 -8 12 3 10 8 -2 13 4 11 14 -1 9 2 19 8 23 6 4
9 1 8 -6 -2 -6 2 -13 9 -16 8 -3 11 3 8 16 -2 14 1 21 11 21 8 0 14 6 13 12
-4 33 1 41 16 28 13 -11 14 -10 9 5 -6 14 -4 16 6 10 8 -5 11 -4 6 3 -4 6 -14
9 -24 6 -15 -5 -15 -5 1 6 9 6 22 8 28 4 7 -4 7 1 -1 16 -7 12 -8 20 -2 16 5
-3 13 1 16 10 3 8 2 13 -2 10 -4 -2 -9 5 -9 17 -2 17 0 19 7 7 8 -13 11 -13
22 -1 10 10 10 12 1 7 -7 -4 -13 -2 -13 3 0 6 7 11 15 11 13 0 14 4 4 21 -8
15 -8 19 0 15 6 -4 11 -2 11 4 0 6 4 9 9 6 4 -3 6 6 3 21 -3 18 -1 24 7 19 14
-9 10 16 -4 26 -6 4 -2 8 9 8 15 0 16 3 6 15 -9 11 -9 15 -1 15 7 0 10 4 7 8
-3 5 3 18 14 29 17 19 19 39 20 227 1 180 -1 209 -16 223 -14 15 -14 18 -1 27
12 10 12 13 0 24 -7 7 -10 18 -7 24 4 7 2 8 -4 4 -9 -5 -9 -13 -2 -27 6 -10 7
-19 3 -19 -4 0 -13 11 -20 25 -6 14 -7 23 -2 19 5 -3 9 0 9 5 0 6 -4 11 -9 11
-5 0 -8 11 -6 25 1 14 -2 28 -8 32 -6 4 -7 1 -2 -7 5 -9 4 -11 -4 -6 -6 4 -9
11 -6 16 9 14 -15 51 -27 44 -6 -4 -8 -3 -4 4 3 6 2 14 -4 17 -8 5 -8 11 0 20
8 9 8 14 0 17 -6 2 -12 13 -12 25 -1 12 -7 19 -14 16 -15 -6 -33 25 -29 50 2
10 -1 14 -7 10 -7 -4 -9 2 -5 16 3 13 3 20 0 17 -3 -3 -15 0 -27 6 -11 7 -25
11 -29 10 -5 -1 -6 2 -2 8 5 8 12 7 23 -1 10 -7 2 2 -15 18 -32 30 -44 51 -21
37 7 -4 8 -3 4 4 -4 6 -14 8 -23 5 -12 -5 -14 -3 -8 6 6 10 2 11 -16 6 -23 -7
-24 -7 -4 9 20 15 20 15 -3 11 -20 -4 -22 -2 -12 10 10 12 9 15 -4 15 -10 0
-24 7 -33 15 -8 8 -20 12 -26 8 -7 -4 -5 2 3 12 9 11 10 16 3 11 -7 -4 -13 -2
-13 3 0 6 -5 11 -11 11 -5 0 -7 -5 -3 -12 4 -7 3 -8 -4 -4 -6 4 -9 13 -5 21 3
10 1 13 -9 10 -9 -4 -22 4 -32 19 -9 15 -24 26 -32 26 -9 0 -23 8 -32 18 -10
10 -13 12 -8 5 6 -10 4 -12 -8 -7 -9 3 -16 11 -16 16 0 6 -6 6 -14 -1 -12 -10
-13 -8 -9 8 3 12 1 21 -6 21 -6 0 -11 -6 -11 -12 -1 -7 -7 -2 -15 12 -8 14
-14 19 -15 12 0 -10 -4 -9 -16 3 -10 9 -25 14 -36 12 -11 -3 -16 -1 -11 6 4 6
0 8 -10 4 -9 -3 -19 -2 -22 4 -4 5 -11 6 -17 3 -6 -4 -8 -2 -5 3 4 6 -1 14
-11 18 -26 12 -43 14 -37 6 2 -4 -3 -8 -11 -8 -8 0 -13 6 -10 13 5 12 -11 14
-29 2 -6 -4 -17 -3 -24 2 -8 4 -26 4 -42 0 -24 -7 -27 -6 -24 11 3 16 1 17
-16 9 -11 -6 -25 -8 -31 -4 -8 5 -9 1 -5 -12 7 -18 6 -18 -6 -2 -8 10 -18 14
-22 10 -5 -4 -5 -1 -1 6 4 7 12 10 17 7 5 -3 6 1 2 10 -5 13 -7 14 -14 3 -5
-7 -9 -9 -9 -4 0 4 -8 0 -17 -11 -10 -10 -14 -13 -9 -5 6 8 4 18 -6 28 -13 13
-16 13 -27 0z m-42 -28 c-9 -16 -14 -19 -17 -9 -4 11 -6 11 -14 0 -8 -11 -9
-11 -5 1 2 8 9 15 15 15 5 0 14 3 18 8 14 13 15 7 3 -15z m201 -152 c0 -6 5
-3 11 7 7 12 15 15 22 9 7 -5 20 -8 30 -7 9 2 14 -1 11 -6 -3 -6 5 -8 20 -5
15 3 24 1 21 -5 -4 -5 0 -9 7 -9 8 0 23 -7 34 -16 16 -13 16 -15 2 -10 -10 3
-18 1 -18 -4 0 -9 15 -14 33 -11 5 1 6 -3 2 -9 -3 -6 -10 -8 -15 -5 -13 8 -19
-20 -8 -36 8 -11 9 -10 4 4 -3 11 0 17 10 17 10 0 14 -6 11 -15 -4 -8 -1 -17
5 -21 7 -5 8 -2 3 6 -6 10 -4 12 9 7 14 -6 15 -4 5 16 l-12 22 23 -20 23 -20
-7 25 c-5 17 -4 20 2 12 12 -18 21 -17 36 3 11 16 13 16 26 0 10 -13 15 -13
22 -3 6 9 7 5 3 -9 -5 -17 -2 -23 9 -23 9 0 16 -4 16 -9 0 -5 7 -12 16 -15 15
-6 15 -4 3 11 -13 17 -13 17 7 0 11 -9 25 -14 29 -10 5 5 4 1 -3 -9 -10 -12
-10 -18 -1 -24 8 -4 9 -3 5 4 -4 7 -2 12 3 12 6 0 11 -5 11 -11 0 -5 4 -7 10
-4 6 3 7 -1 4 -9 -7 -18 7 -21 22 -6 7 7 11 6 11 -4 0 -8 -4 -13 -8 -10 -4 2
-10 0 -13 -5 -7 -11 13 -9 32 2 15 10 16 -5 0 -21 -9 -9 -9 -12 0 -12 7 0 12
-5 12 -11 0 -5 -4 -8 -9 -5 -5 3 -8 -6 -8 -19 0 -26 12 -34 20 -12 3 6 4 -1 3
-18 -2 -16 -1 -24 1 -17 3 7 9 10 14 6 5 -3 6 -10 3 -16 -4 -7 -2 -8 5 -4 6 4
9 11 6 16 -3 5 -1 11 4 14 5 4 12 2 16 -4 3 -5 14 -10 25 -10 10 0 21 -7 24
-16 3 -8 10 -13 15 -9 6 3 6 -6 1 -25 -8 -29 -8 -29 13 -18 19 10 20 9 10 -4
-13 -15 -8 -28 11 -28 6 0 4 5 -4 11 -13 9 -13 10 0 6 8 -2 14 -12 12 -22 -2
-12 1 -15 10 -9 11 6 11 5 0 -8 -11 -13 -8 -20 18 -41 17 -15 26 -29 20 -32
-6 -4 -7 -11 -4 -17 5 -8 1 -9 -10 -5 -10 4 -16 2 -15 -6 4 -33 -1 -41 -16
-21 -8 10 -15 16 -16 12 -1 -5 -2 -11 -3 -15 -1 -5 -5 -14 -10 -22 -6 -9 -5
-12 2 -7 6 3 13 2 16 -2 3 -5 17 -8 30 -7 19 3 23 -1 18 -13 -5 -15 -4 -15 11
-3 15 12 17 12 11 -2 -4 -12 0 -14 18 -10 18 4 20 3 8 -6 -8 -6 -10 -11 -5
-11 6 0 17 -17 25 -37 23 -59 23 -60 0 -25 -29 42 -38 42 -11 -1 11 -19 17
-38 13 -42 -4 -5 -2 -5 5 -1 7 4 17 -2 23 -14 11 -20 10 -21 -10 -10 -20 11
-21 10 -10 -9 6 -12 8 -26 5 -31 -3 -5 -1 -12 5 -15 8 -5 7 -12 -2 -23 -7 -9
-8 -13 -2 -9 7 4 11 -5 11 -23 0 -16 -3 -27 -7 -25 -3 2 -6 -5 -6 -15 0 -10 3
-17 6 -15 3 2 6 -7 6 -21 0 -15 -5 -23 -12 -20 -7 3 -10 -3 -7 -15 3 -10 9
-19 13 -19 5 0 3 -11 -3 -24 -7 -13 -15 -22 -18 -20 -4 2 -5 -5 -2 -17 5 -16
8 -18 15 -7 8 10 9 10 5 -2 -2 -9 -13 -14 -25 -12 -12 2 -22 -2 -22 -8 0 -6 5
-8 10 -5 6 3 10 2 10 -4 0 -5 -5 -13 -10 -16 -8 -5 -7 -12 2 -23 11 -13 11
-14 -1 -7 -11 6 -13 3 -8 -14 4 -17 2 -21 -9 -17 -10 4 -13 2 -7 -7 16 -25 12
-38 -10 -33 -12 3 -16 3 -8 0 11 -5 11 -8 0 -16 -10 -7 -7 -8 10 -4 16 3 21 2
14 -5 -6 -6 -17 -11 -24 -12 -23 -4 -40 -18 -33 -28 3 -5 0 -18 -7 -27 -10
-12 -7 -11 11 3 18 14 21 15 11 3 -7 -9 -9 -23 -5 -29 4 -7 3 -9 -3 -6 -6 4
-13 0 -17 -8 -3 -8 -11 -15 -17 -15 -8 0 -7 6 2 18 13 15 12 16 -3 4 -9 -7
-15 -22 -13 -34 3 -15 0 -18 -12 -14 -11 5 -14 2 -9 -9 8 -21 -23 -67 -40 -61
-7 3 -16 0 -20 -6 -4 -7 -3 -8 4 -4 7 4 12 2 12 -3 0 -10 -22 -16 -43 -12 -5
1 -6 -3 -3 -8 3 -5 -1 -14 -9 -21 -8 -7 -15 -18 -15 -24 0 -6 5 -4 10 4 5 8
10 10 10 4 0 -19 -13 -24 -28 -11 -13 9 -14 9 -8 0 4 -7 2 -13 -3 -13 -6 0
-11 -8 -12 -17 0 -11 -3 -13 -6 -5 -2 6 -9 12 -14 12 -6 0 -8 -4 -5 -9 3 -4
-2 -17 -10 -27 -9 -10 -12 -13 -8 -5 5 10 3 12 -7 5 -8 -5 -18 -9 -24 -9 -5 0
-10 -10 -9 -22 0 -19 -2 -20 -19 -11 -15 8 -18 7 -12 -3 6 -9 3 -11 -8 -6 -18
7 -42 -17 -32 -33 9 -15 -1 -12 -19 6 -15 14 -16 14 -16 -3 0 -33 -21 -45 -43
-26 -15 14 -18 14 -15 3 2 -8 8 -19 13 -23 6 -5 4 -7 -5 -4 -8 2 -23 0 -32 -5
-13 -6 -18 -5 -18 4 0 6 -7 3 -15 -8 -8 -10 -15 -15 -15 -10 0 5 -8 2 -17 -5
-16 -13 -17 -12 -4 3 7 10 17 15 22 12 5 -3 9 0 9 5 0 17 -14 13 -38 -9 -12
-12 -22 -16 -22 -10 0 5 -5 10 -11 10 -5 0 -7 -4 -4 -10 3 -5 1 -10 -5 -10 -6
0 -9 -4 -6 -8 3 -5 -1 -9 -10 -9 -9 0 -13 7 -9 21 3 12 2 15 -1 8 -3 -6 -11
-9 -16 -6 -7 5 -8 2 -3 -6 6 -10 4 -12 -8 -7 -9 3 -19 1 -23 -5 -5 -7 -2 -8 6
-3 8 5 11 4 6 -3 -4 -6 -14 -8 -22 -5 -9 3 -20 0 -25 -8 -7 -11 -9 -11 -9 -1
0 7 -8 12 -17 10 -10 -1 -23 1 -30 5 -6 4 -14 3 -18 -3 -3 -5 -11 -10 -16 -10
-6 0 -8 4 -5 8 3 5 -1 9 -9 9 -8 0 -12 -4 -9 -9 6 -10 -25 -6 -43 5 -7 5 -13
4 -13 -1 0 -4 -19 -7 -42 -5 -24 2 -53 5 -65 6 -12 0 -20 4 -17 8 2 4 -3 10
-12 13 -8 3 -12 2 -9 -3 3 -5 0 -13 -6 -17 -8 -5 -9 -3 -4 6 6 10 4 12 -10 6
-14 -5 -16 -4 -6 8 9 11 8 15 -4 20 -11 4 -14 2 -9 -7 6 -9 4 -9 -8 1 -13 10
-17 10 -21 0 -4 -8 -6 -7 -6 5 -1 9 -8 17 -17 17 -8 0 -12 -4 -9 -10 3 -5 1
-10 -4 -10 -6 0 -11 4 -11 9 0 6 -9 8 -19 6 -11 -2 -25 3 -32 11 -6 8 -17 14
-25 14 -7 0 -15 8 -19 18 -3 9 -20 28 -38 42 -18 13 -26 17 -18 7 8 -10 9 -17
3 -17 -6 0 -14 5 -17 10 -4 6 -11 8 -16 5 -5 -4 -12 1 -15 9 -3 9 -11 13 -17
9 -6 -3 -7 -1 -3 5 4 7 -7 18 -28 29 -38 18 -44 31 -24 51 8 8 8 12 1 12 -6 0
-13 -7 -17 -15 -3 -8 -11 -15 -18 -15 -9 0 -8 3 2 10 14 9 7 15 -14 11 -5 -1
-4 5 3 13 11 13 8 18 -18 33 -17 10 -31 24 -31 31 0 6 -4 13 -10 13 -5 1 -14
2 -20 3 -11 1 -14 12 -7 24 2 4 2 0 0 -8 -3 -11 -1 -12 7 -4 6 6 8 19 4 28 -6
16 -8 17 -16 2 -5 -9 -14 -16 -21 -16 -8 0 -8 3 2 9 8 5 9 11 3 15 -5 3 -8 17
-7 31 2 14 -1 23 -6 19 -5 -3 -7 -9 -4 -14 3 -4 -1 -13 -9 -19 -10 -9 -13 -7
-13 6 0 41 -4 54 -13 48 -6 -3 -7 1 -4 10 5 11 2 14 -12 8 -12 -4 -15 -3 -10
6 5 7 17 9 29 5 21 -6 21 -6 3 8 -13 10 -15 17 -8 22 17 10 15 24 -6 35 -14 8
-19 6 -19 -5 0 -8 6 -13 14 -10 18 7 16 -9 -3 -24 -8 -8 -14 -9 -13 -4 1 5 0
12 -1 17 -4 11 -7 26 -9 36 0 5 -8 16 -16 24 -13 13 -13 16 0 21 8 3 14 2 14
-2 -1 -4 -1 -14 0 -22 1 -11 5 -10 13 5 27 46 16 76 -18 49 -18 -14 -18 -14 5
-4 18 9 22 9 19 -1 -5 -14 -48 -23 -48 -10 0 6 5 13 10 16 6 4 8 10 5 15 -3 5
0 12 6 16 8 5 9 3 4 -7 -5 -8 1 -5 13 5 12 11 22 26 22 35 1 18 30 61 30 43 0
-7 4 -12 10 -12 5 0 7 8 4 17 -5 15 -3 15 12 -2 14 -17 16 -17 11 -2 -7 20 2
49 13 42 4 -2 6 -18 4 -35 -4 -31 2 -36 24 -21 11 7 11 9 0 13 -9 4 -13 20
-12 44 0 22 -4 42 -10 46 -8 5 -7 8 1 8 16 0 36 -37 27 -52 -11 -18 19 3 34
24 7 10 18 18 23 18 6 0 3 -10 -5 -22 -9 -12 -16 -27 -16 -33 0 -5 8 2 18 18
10 15 22 24 27 20 4 -5 5 -2 1 5 -4 7 0 15 10 19 16 6 16 7 -1 13 -12 4 -15 9
-8 13 6 4 18 1 26 -8 13 -13 16 -13 21 2 4 9 9 13 12 10 9 -9 -15 -46 -29 -43
-6 1 -9 1 -4 -1 4 -3 7 -9 7 -14 0 -6 -4 -8 -8 -5 -5 3 -28 -14 -53 -36 -24
-23 -36 -36 -27 -29 9 7 23 9 29 5 7 -4 9 -3 6 3 -6 10 33 49 45 46 14 -5 46
63 43 95 -2 37 1 39 27 15 17 -15 18 -15 13 -1 -4 9 -13 19 -21 22 -20 8 -17
22 6 23 11 1 19 -1 19 -5 -3 -21 3 -31 16 -26 8 4 15 10 15 15 0 4 -6 6 -13 3
-8 -3 -13 4 -14 17 -1 12 1 19 4 15 3 -3 13 -1 23 4 11 6 24 4 38 -6 13 -9 22
-11 22 -5 0 6 -5 11 -11 11 -5 0 -7 5 -4 10 4 7 -3 9 -19 6 -17 -3 -23 -1 -20
8 2 6 18 12 34 11 19 0 29 -4 26 -12 -3 -6 3 -18 12 -27 19 -17 54 -16 60 2 2
7 8 10 13 7 5 -4 6 2 2 11 -4 11 -3 15 5 10 12 -7 38 32 28 42 -3 3 -6 0 -6
-7 0 -7 -4 -9 -10 -6 -6 4 -7 -1 -3 -12 5 -15 1 -14 -19 5 -21 19 -30 22 -46
13 -11 -6 -22 -7 -26 -4 -10 10 -7 20 7 21 6 0 21 3 32 5 11 2 23 0 26 -6 9
-13 42 0 34 13 -3 5 -2 10 4 10 5 0 11 -6 14 -12 2 -7 4 1 4 17 0 17 -5 38
-12 49 -14 19 -9 50 6 41 4 -3 6 -12 3 -19 -7 -17 9 -28 29 -20 21 8 30 34 17
49 -10 12 -4 25 13 25 6 0 7 -3 4 -6 -3 -4 -2 -14 3 -24 11 -20 -13 -60 -36
-60 -8 0 -14 -5 -14 -10 0 -7 8 -6 22 1 32 17 48 35 40 44 -4 5 2 5 13 1 18
-6 17 -5 -3 14 -13 12 -21 25 -17 28 3 4 11 0 16 -8 8 -11 8 -8 3 10 -6 23 -6
24 12 10 18 -14 18 -14 0 8 -11 12 -15 22 -9 22 14 0 53 -47 45 -55 -4 -3 1
-3 11 1 29 11 19 -4 -20 -31 -21 -14 -33 -25 -28 -25 6 0 19 7 29 15 14 10 23
12 32 4 8 -6 14 -6 18 0 4 5 1 13 -5 17 -12 7 6 24 26 24 6 0 4 -4 -4 -9 -16
-11 -5 -34 12 -24 8 5 8 2 0 -9 -7 -8 -9 -19 -5 -24 4 -4 -1 -2 -10 5 -15 11
-18 11 -18 0 0 -10 -3 -10 -12 -1 -7 7 -17 12 -23 12 -5 0 -2 -5 8 -11 9 -6
15 -14 12 -19 -3 -5 -1 -11 4 -14 5 -4 13 -1 17 5 4 8 3 9 -4 5 -7 -4 -12 -5
-12 -2 0 14 19 14 31 -1 8 -9 9 -14 3 -10 -7 4 -14 0 -18 -8 -3 -8 0 -17 6
-21 7 -4 8 -3 4 4 -4 7 -2 12 3 12 13 0 14 -17 2 -25 -5 -3 -17 2 -25 11 -9 8
-16 11 -16 6 0 -5 8 -16 18 -25 20 -18 22 -64 3 -60 -6 2 -11 -4 -11 -13 0 -8
4 -12 10 -9 5 3 7 0 4 -9 -3 -8 -13 -12 -22 -9 -11 3 -13 2 -6 -4 13 -9 12
-41 0 -63 -7 -12 -6 -13 5 -2 13 12 38 18 26 6 -3 -4 -1 -16 5 -28 7 -11 11
-24 10 -28 -1 -4 6 -6 16 -6 9 0 26 -3 36 -7 14 -6 17 -5 11 4 -6 10 -3 11 12
3 14 -8 27 -7 47 3 27 14 29 15 46 15 6 0 10 5 10 11 0 5 -6 7 -12 3 -10 -5
-10 -4 -1 6 13 15 36 4 27 -13 -4 -7 -3 -8 1 -4 11 9 16 37 7 36 -28 -4 -35 2
-17 14 14 11 15 16 5 22 -9 5 -11 4 -6 -3 4 -7 2 -12 -4 -12 -7 0 -10 6 -7 14
3 7 1 18 -5 24 -6 6 -6 12 3 17 8 6 10 4 4 -6 -5 -8 -4 -10 0 -6 13 11 15 38
3 30 -7 -4 -9 2 -5 16 5 19 3 21 -11 9 -9 -7 -14 -8 -10 -4 4 5 3 15 -4 23 -6
7 -8 16 -4 20 3 3 6 1 6 -5 0 -7 4 -12 8 -12 5 0 9 7 9 14 0 8 -3 15 -6 14
-20 -2 -31 3 -26 12 4 6 11 8 16 5 5 -3 6 1 3 9 -4 10 -1 16 7 16 7 0 9 3 6 6
-4 4 -14 1 -22 -6 -14 -12 -15 -10 -9 15 6 22 4 26 -7 20 -12 -8 -12 -6 0 8
15 19 26 23 15 5 -4 -7 -3 -8 4 -4 6 4 9 13 5 21 -3 8 1 15 8 15 7 0 9 3 6 6
-4 4 -14 1 -22 -6 -14 -12 -15 -10 -9 15 5 20 4 26 -5 21 -17 -11 -13 0 6 15
14 12 16 12 8 0 -5 -9 -4 -12 3 -7 6 4 9 13 5 21 -3 8 1 15 8 15 7 0 9 3 6 6
-4 4 -14 1 -22 -6 -14 -12 -15 -10 -9 15 5 20 4 26 -5 21 -17 -11 -13 0 6 15
14 12 16 12 8 0 -5 -9 -4 -12 3 -7 6 4 9 13 5 21 -3 8 1 15 8 15 7 0 9 3 6 6
-4 4 -14 1 -22 -6 -14 -12 -15 -10 -9 15 6 22 4 26 -7 20 -12 -8 -12 -6 0 8
15 19 26 23 15 5 -4 -7 -3 -8 4 -4 6 4 9 13 5 21 -3 8 1 15 8 15 7 0 9 3 6 6
-4 4 -14 1 -22 -6 -14 -12 -15 -10 -9 15 6 22 4 26 -7 20 -12 -8 -12 -6 0 8
15 19 26 23 15 5 -4 -7 -3 -8 4 -4 6 4 9 13 5 21 -3 8 1 15 8 15 7 0 9 3 6 6
-4 4 -14 1 -22 -6 -14 -12 -15 -10 -9 15 5 20 4 26 -5 21 -17 -11 -13 0 6 15
14 12 16 12 8 0 -5 -9 -4 -12 3 -7 6 4 9 13 5 21 -3 8 1 15 8 15 7 0 9 3 6 6
-4 4 -13 1 -22 -6 -16 -13 -18 -10 -9 14 3 9 10 14 14 11 5 -3 11 -1 14 4 4 5
-5 8 -19 6 -20 -2 -23 0 -14 11 6 8 15 11 20 8 5 -3 6 2 3 10 -4 10 -1 16 7
16 7 0 9 3 6 6 -4 4 -13 1 -21 -5 -13 -11 -14 -6 -11 34 3 26 1 44 -4 40 -13
-7 -7 23 6 36 6 6 10 17 9 23 -2 6 -1 8 1 3 3 -4 10 -4 16 0 7 4 6 -1 -2 -10
-9 -11 -10 -17 -2 -17 6 0 12 6 13 13 0 6 2 17 3 22 2 6 3 13 4 17 2 12 51
-14 51 -26z m445 -26 c3 -6 -1 -7 -9 -4 -18 7 -21 14 -7 14 6 0 13 -4 16 -10z
m-731 -140 c-6 -6 -10 -3 -10 10 0 13 4 16 10 10 7 -7 7 -13 0 -20z m-94 -4
c0 -3 -4 -8 -10 -11 -5 -3 -10 -1 -10 4 0 6 5 11 10 11 6 0 10 -2 10 -4z m82
-30 c-4 -6 -7 -14 -7 -18 0 -19 -11 -14 -11 6 0 12 6 23 13 23 6 0 9 -5 5 -11z
m-82 0 c0 -2 -8 -10 -17 -17 -16 -13 -17 -12 -4 4 13 16 21 21 21 13z m108
-36 c-7 -11 -15 -15 -17 -9 -2 6 3 15 10 20 20 12 21 11 7 -11z m-208 4 c0 -8
-19 -13 -24 -6 -3 5 1 9 9 9 8 0 15 -2 15 -3z m125 -4 c3 -6 -1 -7 -9 -4 -18
7 -21 14 -7 14 6 0 13 -4 16 -10z m-55 -14 c0 -2 -8 -10 -17 -17 -16 -13 -17
-12 -4 4 13 16 21 21 21 13z m106 -5 c-4 -5 -1 -12 4 -14 6 -3 5 -4 -2 -3 -15
3 -23 26 -8 26 6 0 9 -4 6 -9z m-22 -32 c-2 -4 3 -9 11 -13 8 -3 15 0 15 6 0
6 2 9 5 6 3 -3 3 -12 -1 -21 -5 -14 -8 -14 -26 3 -12 11 -25 17 -30 14 -5 -4
-4 3 3 15 9 14 16 17 20 9 4 -7 6 -15 3 -19z m-297 6 c0 -8 -4 -12 -9 -9 -5 3
-6 10 -3 15 9 13 12 11 12 -6z m246 -2 c-3 -7 -6 -13 -8 -13 -2 0 -5 6 -8 13
-3 8 1 14 8 14 7 0 11 -6 8 -14z m111 2 c-4 -8 -8 -15 -10 -15 -2 0 -4 7 -4
15 0 8 4 15 10 15 5 0 7 -7 4 -15z m26 -15 c0 -5 -2 -10 -4 -10 -3 0 -8 5 -11
10 -3 6 -1 10 4 10 6 0 11 -4 11 -10z m-183 -24 c0 -8 -6 -12 -14 -9 -7 3 -10
9 -7 14 8 14 21 11 21 -5z m63 4 c0 -5 -4 -10 -10 -10 -5 0 -10 5 -10 10 0 6
5 10 10 10 6 0 10 -4 10 -10z m96 1 c-4 -5 -3 -11 1 -14 5 -2 2 -2 -4 -1 -19
5 -16 -13 5 -34 10 -10 17 -27 15 -38 -10 -49 -10 -64 -1 -64 5 0 8 -6 5 -12
-2 -7 3 -19 12 -26 14 -10 13 -11 -4 -5 -11 3 -17 3 -13 -2 4 -4 2 -15 -5 -23
-10 -13 -8 -14 13 -7 24 7 24 7 5 -8 -20 -15 -41 -4 -29 15 3 4 1 8 -5 8 -5 0
-9 -9 -8 -20 1 -20 22 -34 37 -25 5 3 12 0 16 -7 4 -7 4 -10 -1 -6 -4 4 -14 3
-21 -3 -9 -7 -22 -2 -48 21 -19 17 -40 29 -46 25 -6 -3 -8 -10 -5 -15 3 -5 1
-12 -5 -15 -7 -4 -10 3 -7 19 2 15 6 25 9 24 2 -2 12 3 21 10 9 8 18 9 21 3 3
-5 1 -11 -5 -13 -7 -2 -6 -8 4 -16 12 -10 14 -8 11 13 -2 22 1 25 19 20 15 -4
18 -3 9 3 -11 7 -10 10 3 16 9 3 13 11 9 17 -5 8 -10 6 -16 -5 -5 -9 -14 -16
-20 -16 -6 0 -1 11 12 25 13 14 18 25 11 25 -7 0 -10 4 -7 8 2 4 -6 8 -20 8
-13 0 -24 -4 -24 -8 0 -7 15 -12 33 -9 9 1 9 -13 0 -22 -3 -4 -13 -1 -22 6
-14 10 -14 10 -3 -5 9 -11 10 -18 2 -23 -5 -3 -11 0 -12 7 0 7 -2 18 -3 23 -2
6 -3 15 -4 21 -1 15 -29 13 -35 -2 -3 -9 1 -11 11 -7 13 5 15 2 10 -11 -4 -10
-2 -26 4 -37 9 -18 8 -19 -9 -10 -11 6 -23 7 -27 3 -5 -4 -5 -1 0 7 5 10 4 12
-4 7 -6 -4 -9 -12 -6 -17 4 -5 1 -9 -4 -9 -6 0 -11 5 -11 12 0 9 -3 9 -11 1
-21 -21 1 -36 26 -19 22 15 24 14 22 -4 -1 -15 -7 -18 -29 -16 -15 2 -25 -1
-22 -5 3 -5 -3 -6 -12 -2 -13 5 -16 2 -12 -9 4 -8 1 -15 -7 -15 -7 0 -11 6 -9
12 3 7 -2 18 -11 25 -18 15 -21 0 -3 -18 9 -9 9 -12 0 -12 -7 0 -12 5 -12 11
0 5 -5 7 -11 3 -6 -4 1 -13 18 -24 28 -18 60 -9 46 13 -3 6 -1 7 6 3 6 -4 18
-3 26 4 8 6 16 7 19 2 3 -6 -1 -15 -9 -22 -12 -10 -13 -16 -3 -27 9 -11 8 -18
-5 -30 -9 -9 -20 -14 -24 -10 -3 4 2 14 13 22 14 11 15 14 3 9 -10 -3 -20 -1
-23 5 -11 17 -35 1 -31 -20 2 -11 -4 -23 -16 -29 -24 -13 -25 2 -1 26 16 17
16 18 -1 11 -11 -4 -16 -3 -12 3 3 6 1 10 -4 10 -6 0 -11 -2 -11 -4 0 -2 -3
-13 -6 -23 -5 -15 -4 -16 6 -3 8 10 10 11 8 2 -5 -18 -23 -11 -21 8 1 11 -3 9
-13 -4 -10 -14 -14 -16 -14 -5 -1 9 -4 8 -12 -5 -8 -15 -8 -21 0 -24 15 -5 16
-32 1 -32 -5 0 -8 3 -5 8 2 4 -2 16 -10 27 -13 18 -20 10 -15 -17 0 -5 -4 -8
-10 -8 -6 0 -8 8 -5 18 4 10 -2 7 -14 -8 -19 -24 -21 -24 -34 -7 -12 16 -14
16 -20 2 -3 -9 -2 -13 3 -10 5 3 12 1 15 -4 4 -5 2 -12 -4 -16 -6 -4 -7 -12
-3 -18 4 -7 -6 -4 -21 7 -23 14 -28 15 -23 3 3 -8 0 -20 -6 -26 -6 -6 -7 -11
-2 -11 5 0 0 -7 -11 -16 -10 -8 -13 -13 -7 -9 9 4 11 1 7 -10 -6 -14 -8 -14
-20 2 -13 17 -14 17 -8 -2 3 -11 -3 -5 -15 13 -22 34 -41 42 -41 16 0 -8 4
-13 9 -10 10 7 28 -12 33 -34 2 -8 8 -19 13 -23 6 -5 -1 -5 -14 -2 -20 6 -23
4 -17 -10 6 -15 4 -16 -9 -5 -15 12 -14 15 5 25 20 10 20 13 6 18 -11 5 -15 3
-10 -5 4 -7 3 -8 -4 -4 -7 4 -12 2 -12 -4 0 -6 -5 -8 -10 -5 -15 9 -25 -24
-11 -38 6 -6 11 -15 11 -21 0 -5 -6 -2 -13 8 -12 16 -14 16 -14 2 0 -9 5 -16
10 -16 6 0 7 -3 4 -6 -4 -4 -14 -1 -24 7 -13 11 -15 11 -9 1 7 -12 4 -12 -14
-2 -18 10 -21 9 -15 -1 5 -7 4 -10 -1 -6 -6 3 -11 -3 -11 -14 -1 -10 2 -19 8
-19 5 0 8 5 6 11 -1 6 5 14 13 16 13 4 13 3 0 -7 -13 -10 -13 -11 1 -7 9 3 21
-3 27 -14 10 -16 16 -18 34 -8 20 11 20 13 5 24 -9 6 -14 15 -10 18 3 4 11 3
17 -3 7 -5 17 -5 26 1 12 8 11 9 -4 7 -10 -2 -21 2 -23 8 -6 16 30 13 50 -4
14 -12 20 -13 30 -3 9 10 9 11 -4 6 -10 -4 -16 0 -16 10 0 17 6 18 26 6 22
-14 -4 -54 -27 -42 -23 12 -44 -1 -36 -22 4 -12 2 -16 -8 -12 -8 3 -21 -1 -28
-10 -16 -19 -30 -19 -30 -1 0 16 -27 29 -41 20 -5 -3 -5 -13 1 -24 5 -10 10
-22 10 -27 -1 -4 -8 4 -16 20 -8 15 -19 27 -25 27 -6 0 -8 4 -4 9 3 5 0 13 -6
17 -8 5 -9 3 -4 -6 5 -8 4 -11 -3 -6 -7 4 -10 -1 -7 -13 3 -15 0 -18 -12 -14
-13 5 -15 2 -10 -11 4 -11 3 -15 -4 -11 -6 4 -8 14 -5 22 4 9 2 11 -6 7 -7 -5
-8 -3 -3 5 6 10 3 11 -14 2 -24 -13 -28 -23 -6 -15 18 7 20 -7 3 -26 -10 -11
-9 -11 6 0 19 15 19 15 0 -15 -14 -21 -15 -27 -4 -20 13 8 13 7 0 -10 -12 -15
-12 -17 -1 -10 11 6 13 4 8 -7 -3 -9 -1 -20 4 -25 5 -5 7 -16 4 -24 -6 -17
-45 -23 -45 -8 0 6 -4 8 -9 5 -5 -3 -12 1 -15 9 -4 13 -2 14 14 5 14 -7 20 -7
20 0 0 5 -5 10 -12 10 -6 0 -8 3 -5 7 4 3 2 12 -5 20 -6 7 -8 16 -5 20 4 3 1
15 -5 26 -8 16 -7 23 8 34 17 13 17 14 -8 17 -6 0 -12 9 -14 19 -3 19 12 24
18 5 2 -6 12 -12 22 -14 10 -1 15 3 13 9 -3 7 -10 11 -16 9 -7 -1 -10 2 -7 7
6 9 -22 25 -39 22 -5 -1 -1 6 9 14 23 18 36 19 36 4 0 -5 -5 -7 -10 -4 -6 3
-10 1 -10 -4 0 -6 2 -11 4 -11 2 0 12 -3 22 -7 13 -5 15 -3 9 8 -7 12 -6 12 8
1 14 -12 16 -11 14 7 -1 13 -6 20 -14 17 -7 -3 -13 -1 -13 4 0 6 7 10 15 10 8
0 15 5 15 11 0 7 -7 8 -17 4 -42 -16 -46 -16 -18 2 24 16 31 18 38 6 4 -7 5
-18 2 -23 -7 -11 -3 -12 19 -4 13 5 13 9 1 28 -9 14 -11 26 -5 36 9 13 10 13
11 0 1 -8 1 -20 0 -25 0 -6 13 -10 29 -10 17 -1 29 4 27 10 -2 5 -12 9 -22 7
-10 -2 -14 1 -10 7 3 6 2 11 -3 11 -6 0 -13 8 -16 17 -6 15 -4 14 14 -2 20
-18 21 -18 47 7 24 25 25 28 9 43 -23 24 -20 32 4 10 12 -10 18 -25 15 -33 -3
-9 0 -12 9 -9 7 3 19 0 25 -6 8 -8 9 -1 6 25 -3 24 0 40 10 48 8 7 15 9 15 4
0 -5 5 -2 11 6 9 12 10 12 5 -3 -4 -12 -2 -17 6 -14 7 2 12 11 10 20 -1 8 11
29 28 45 27 27 28 31 13 43 -15 12 -16 12 -10 -4 4 -10 3 -16 -2 -12 -5 3 -11
0 -13 -7 -3 -7 -7 -5 -11 6 -4 9 -3 15 2 12 5 -3 12 1 15 10 5 13 9 13 30 -3
l24 -18 -24 -16 c-13 -8 -21 -18 -18 -22 3 -3 17 1 30 10 18 12 27 13 38 4 10
-9 17 -7 27 5 11 13 11 15 -2 14 -33 -5 -39 0 -22 19 9 11 20 18 25 15 4 -3 8
1 8 9 0 27 -28 27 -34 1 -7 -27 -27 -31 -46 -9 -7 8 -10 15 -6 15 16 0 21 -3
18 -11 -5 -20 19 -7 27 14 11 28 38 31 46 7 3 -10 15 -26 27 -36 20 -17 19
-15 -5 27 -14 26 -23 49 -20 53 3 3 1 6 -5 6 -7 0 -12 -6 -13 -12 0 -10 -2
-10 -6 0 -2 6 -10 9 -15 6 -6 -4 -8 -3 -5 3 11 17 50 10 53 -10 3 -25 9 -30
40 -33 26 -3 26 -2 8 15 -13 12 -21 15 -26 7 -6 -8 -8 -8 -8 1 0 12 52 53 67
53 4 0 1 -5 -8 -10 -18 -10 -19 -52 -1 -58 7 -2 9 6 6 22 -4 21 -1 26 17 26
21 0 21 1 5 19 -10 11 -16 26 -13 33 4 9 6 9 6 -2 1 -17 35 -50 51 -50 18 0
10 17 -15 30 -24 13 -32 30 -18 43 3 4 12 2 20 -4 16 -14 17 -5 1 24 -7 14 1
10 20 -12 18 -18 32 -37 32 -41 0 -4 6 -13 14 -19 12 -10 17 -8 25 8 14 25 14
42 0 18 -6 -9 -14 -15 -20 -12 -14 9 -11 25 6 25 8 0 15 5 15 11 0 6 -8 8 -19
4 -13 -4 -27 2 -40 17 -23 24 -19 33 19 42 23 5 22 5 -3 -7 -26 -13 -27 -15
-11 -28 22 -18 62 -19 69 0 3 8 -4 24 -15 36 -11 12 -20 25 -20 29 0 5 9 -2
20 -15 10 -13 19 -19 20 -12 0 7 10 18 23 24 22 11 22 11 -1 -11 -19 -18 -21
-24 -10 -31 22 -14 31 -10 17 8 -10 11 -10 14 -1 9 7 -4 12 -2 12 4 0 7 7 10
14 7 9 -4 17 2 21 14 4 10 11 19 16 19 6 0 8 -4 5 -9z m-241 -31 c3 -6 -1 -7
-9 -4 -18 7 -21 14 -7 14 6 0 13 -4 16 -10z m-110 -10 c3 -6 -1 -7 -9 -4 -18
7 -21 14 -7 14 6 0 13 -4 16 -10z m70 0 c3 -5 1 -10 -4 -10 -6 0 -11 5 -11 10
0 6 2 10 4 10 3 0 8 -4 11 -10z m85 4 c0 -8 -19 -13 -24 -6 -3 5 1 9 9 9 8 0
15 -2 15 -3z m220 -4 c0 -5 -2 -10 -4 -10 -3 0 -8 5 -11 10 -3 6 -1 10 4 10 6
0 11 -4 11 -10z m-140 -18 c0 -4 -9 -8 -20 -9 -11 -1 -18 2 -15 8 7 11 35 12
35 1z m-300 -22 c0 -5 -2 -10 -4 -10 -3 0 -8 5 -11 10 -3 6 -1 10 4 10 6 0 11
-4 11 -10z m190 6 c0 -3 -4 -8 -10 -11 -5 -3 -10 -1 -10 4 0 6 5 11 10 11 6 0
10 -2 10 -4z m-37 -27 c-8 -8 -13 -7 -18 2 -5 8 -4 10 3 5 7 -4 12 -2 12 5 0
7 3 9 7 6 4 -4 2 -12 -4 -18z m-193 -19 c0 -5 -2 -10 -4 -10 -3 0 -8 5 -11 10
-3 6 -1 10 4 10 6 0 11 -4 11 -10z m180 -11 c0 -14 -17 -10 -23 5 -4 10 -1 13
9 9 7 -3 14 -9 14 -14z m315 11 c3 -5 1 -10 -4 -10 -6 0 -11 5 -11 10 0 6 2
10 4 10 3 0 8 -4 11 -10z m-436 -13 c8 -10 7 -14 -2 -14 -8 0 -14 6 -14 14 0
7 1 13 2 13 2 0 8 -6 14 -13z m81 3 c0 -5 -5 -10 -11 -10 -5 0 -7 5 -4 10 3 6
8 10 11 10 2 0 4 -4 4 -10z m1257 4 c-3 -3 -12 -4 -19 -1 -8 3 -5 6 6 6 11 1
17 -2 13 -5z m-1467 -30 c0 -8 -19 -13 -24 -6 -3 5 1 9 9 9 8 0 15 -2 15 -3z
m216 -6 c-9 -5 -23 -5 -32 0 -12 6 -7 9 16 9 23 0 28 -3 16 -9z m-127 -25
c-12 -15 -12 -16 4 -10 23 9 22 0 -2 -13 -14 -7 -19 -6 -17 3 2 15 15 37 23
37 3 0 -1 -8 -8 -17z m-55 -11 c3 -5 -1 -9 -9 -9 -8 0 -12 4 -9 9 3 4 7 8 9 8
2 0 6 -4 9 -8z m89 -17 c-3 -9 -8 -14 -10 -11 -3 3 -2 9 2 15 9 16 15 13 8 -4z
m-70 -15 c-3 -12 -8 -19 -11 -16 -5 6 5 36 12 36 2 0 2 -9 -1 -20z m-67 -5
c-1 -8 -5 -17 -8 -21 -5 -4 -4 16 1 34 3 9 9 -1 7 -13z m42 -16 c-3 -8 -7 -3
-11 10 -4 17 -3 21 5 13 5 -5 8 -16 6 -23z m-103 3 c-3 -3 -11 0 -18 7 -9 10
-8 11 6 5 10 -3 15 -9 12 -12z m-5 -26 c0 -2 -8 -10 -17 -17 -16 -13 -17 -12
-4 4 13 16 21 21 21 13z m53 -13 c-5 -12 -3 -14 7 -8 8 5 11 4 6 -3 -4 -6 -13
-9 -22 -5 -11 4 -12 9 -3 19 15 19 20 18 12 -3z m44 -18 c-25 -18 -21 -27 6
-15 21 11 21 11 3 -4 -14 -12 -23 -13 -30 -5 -8 7 -6 14 6 23 10 7 14 17 10
21 -4 5 -1 5 7 0 12 -7 11 -10 -2 -20z m-93 -16 c-2 -4 1 -9 8 -11 7 -3 5 -7
-6 -11 -11 -5 -15 -3 -10 5 5 7 2 9 -9 5 -10 -4 -14 -2 -11 7 3 7 11 13 19 13
8 0 12 -4 9 -8z m-74 -13 c0 -2 -7 -7 -16 -10 -8 -3 -12 -2 -9 4 6 10 25 14
25 6z m134 -5 c3 -5 -2 -15 -12 -22 -15 -13 -16 -12 -4 3 11 14 10 17 -5 21
-16 4 -16 5 -1 6 9 0 19 -3 22 -8z m286 -3 c0 -4 7 -8 15 -8 8 0 15 -4 15 -9
0 -16 -37 -8 -48 9 -8 13 -7 17 4 17 8 0 14 -4 14 -9z m88 -23 c3 -10 0 -15
-7 -11 -10 6 -15 -6 -12 -26 2 -11 -17 -10 -24 1 -3 6 -15 8 -28 5 -12 -3 -27
-6 -34 -8 -22 -4 -26 -15 -13 -31 9 -11 17 -12 32 -4 28 15 50 -5 37 -35 -18
-38 -63 -28 -64 14 0 10 -9 15 -27 14 -15 -1 -29 5 -32 13 -3 8 -1 11 5 8 12
-8 41 14 33 26 -3 5 -10 6 -16 3 -6 -4 -6 0 1 13 6 11 8 23 6 27 -3 3 -2 3 3
0 4 -3 7 -11 7 -17 0 -7 10 -13 23 -13 12 -1 22 3 22 9 0 5 7 4 15 -3 9 -8 15
-8 15 -2 0 16 31 43 44 39 6 -2 13 -12 14 -22z m-718 11 c0 -2 -8 -10 -17 -17
-16 -13 -17 -12 -4 4 13 16 21 21 21 13z m224 -4 c3 -5 -1 -9 -9 -9 -8 0 -12
4 -9 9 3 4 7 8 9 8 2 0 6 -4 9 -8z m41 -2 c3 -5 1 -10 -4 -10 -6 0 -11 5 -11
10 0 6 2 10 4 10 3 0 8 -4 11 -10z m45 -4 c0 -20 -17 -29 -26 -15 -5 8 -3 9 6
4 10 -6 12 -4 7 8 -3 10 -2 17 3 17 6 0 10 -6 10 -14z m-140 0 c0 -2 -6 -9
-14 -15 -11 -9 -16 -9 -22 0 -4 7 -3 9 4 5 6 -3 13 -2 17 4 6 10 15 14 15 6z
m385 -29 c1 -7 7 -11 14 -9 7 1 10 -2 6 -8 -4 -6 -16 -8 -27 -4 -17 5 -19 3
-13 -15 4 -12 2 -21 -4 -21 -6 0 -10 -3 -10 -7 3 -20 -2 -34 -11 -28 -7 4 -6
13 1 27 8 15 8 19 0 13 -7 -4 -19 -1 -28 7 -10 8 -14 8 -10 1 4 -6 3 -14 -2
-18 -6 -3 -8 -12 -4 -21 5 -12 7 -12 19 3 12 17 13 17 10 0 -3 -22 -26 -47
-26 -28 0 7 -4 9 -10 6 -5 -3 -10 -15 -10 -26 0 -10 -4 -19 -10 -19 -5 0 -10
5 -10 11 0 8 -5 8 -15 -1 -8 -7 -12 -16 -9 -21 3 -5 3 -9 0 -9 -3 0 -10 8 -15
19 -9 15 -7 18 7 17 12 -1 16 5 14 18 -3 18 -2 18 15 6 10 -8 15 -11 11 -6 -4
5 -1 21 7 36 8 15 11 30 8 34 -6 6 1 8 37 10 8 1 15 6 15 13 0 14 37 44 45 36
3 -2 5 -10 5 -16z m-368 -2 c0 -8 -4 -15 -9 -15 -10 0 -11 14 -1 23 9 10 10 9
10 -8z m53 -5 c-8 -5 -19 -10 -25 -10 -5 0 -3 5 5 10 8 5 20 10 25 10 6 0 3
-5 -5 -10z m77 -12 c-3 -8 -6 -5 -6 6 -1 11 2 17 5 13 3 -3 4 -12 1 -19z m-51
-10 c5 -8 2 -9 -10 -5 -14 5 -17 3 -12 -8 3 -8 1 -15 -4 -15 -11 0 -13 23 -3
33 10 10 21 8 29 -5z m-86 -18 c8 -5 11 -10 5 -10 -5 0 -17 5 -25 10 -8 5 -10
10 -5 10 6 0 17 -5 25 -10z m-51 -47 c0 -11 -3 -13 -6 -5 -2 6 -10 9 -15 6 -7
-4 -8 -2 -4 4 11 18 26 14 25 -5z m225 -42 c17 -19 17 -19 -1 -17 -10 2 -19
10 -21 19 -4 22 1 21 22 -2z m549 -26 c-3 -9 -8 -14 -10 -11 -3 3 -2 9 2 15 9
16 15 13 8 -4z m-555 -50 c2 -1 -4 -5 -12 -8 -10 -4 -20 2 -27 14 -10 19 -9
20 13 8 13 -6 24 -13 26 -14z m-94 -41 c8 -21 -3 -42 -25 -49 -10 -4 -24 -15
-29 -26 -14 -24 -26 -24 -26 0 0 11 4 17 8 15 4 -3 8 0 8 6 0 6 4 9 8 6 5 -3
9 2 9 10 0 10 -4 11 -11 4 -14 -14 -29 -13 -23 3 2 6 10 12 18 12 8 1 13 6 12
13 -2 7 3 11 10 10 6 -2 11 2 10 9 -4 17 24 5 31 -13z m1580 -312 c3 -5 -1 -9
-9 -9 -8 0 -12 4 -9 9 3 4 7 8 9 8 2 0 6 -4 9 -8z m-1478 -234 c4 -7 3 -8 -4
-4 -7 4 -12 2 -12 -4 0 -6 -5 -8 -11 -4 -8 4 -7 9 2 15 18 11 17 11 25 -3z
m1316 -10 c-7 -7 -12 -8 -12 -2 0 14 12 26 19 19 2 -3 -1 -11 -7 -17z m-1121
-155 c13 -16 12 -17 -3 -4 -10 7 -18 15 -18 17 0 8 8 3 21 -13z m919 7 c0 -5
-5 -10 -11 -10 -5 0 -7 5 -4 10 3 6 8 10 11 10 2 0 4 -4 4 -10z m-996 -106 c3
-8 2 -12 -4 -9 -6 3 -10 10 -10 16 0 14 7 11 14 -7z m151 -82 c-3 -3 -11 0
-18 7 -9 10 -8 11 6 5 10 -3 15 -9 12 -12z m165 -36 c0 -2 -7 -7 -16 -10 -8
-3 -12 -2 -9 4 6 10 25 14 25 6z"/>
<path d="M1306 1927 c3 -10 9 -15 12 -12 3 3 0 11 -7 18 -10 9 -11 8 -5 -6z"/>
<path d="M1370 1921 c0 -6 4 -13 10 -16 6 -3 7 1 4 9 -7 18 -14 21 -14 7z"/>
<path d="M1255 1880 c-3 -5 -5 -10 -3 -11 33 -8 38 -7 27 7 -14 17 -16 17 -24
4z"/>
<path d="M1470 1839 c0 -5 5 -7 10 -4 6 3 10 8 10 11 0 2 -4 4 -10 4 -5 0 -10
-5 -10 -11z"/>
<path d="M1266 1808 c3 -5 10 -6 15 -3 13 9 11 12 -6 12 -8 0 -12 -4 -9 -9z"/>
<path d="M1876 1607 c3 -10 9 -15 12 -12 3 3 0 11 -7 18 -10 9 -11 8 -5 -6z"/>
<path d="M1910 1591 c0 -5 7 -12 16 -15 14 -5 15 -4 4 9 -14 17 -20 19 -20 6z"/>
<path d="M2013 1425 c0 -8 4 -15 9 -15 4 0 8 4 8 9 0 6 -4 12 -8 15 -5 3 -9
-1 -9 -9z"/>
<path d="M1030 1310 c0 -5 5 -10 10 -10 6 0 10 5 10 10 0 6 -4 10 -10 10 -5 0
-10 -4 -10 -10z"/>
<path d="M996 1245 c-4 -11 -4 -16 0 -12 4 4 12 0 18 -8 8 -11 15 -12 26 -4
12 9 12 10 -4 5 -14 -5 -17 -2 -12 9 3 9 2 14 -3 10 -5 -3 -11 0 -13 7 -3 7
-7 4 -12 -7z"/>
<path d="M1055 1240 c3 -5 8 -10 11 -10 2 0 4 5 4 10 0 6 -5 10 -11 10 -5 0
-7 -4 -4 -10z"/>
<path d="M955 1219 c-18 -8 -18 -9 3 -5 17 3 22 1 18 -10 -3 -8 -1 -14 4 -14
12 0 13 27 3 33 -5 3 -17 0 -28 -4z"/>
<path d="M1061 1204 c0 -11 3 -14 6 -6 3 7 2 16 -1 19 -3 4 -6 -2 -5 -13z"/>
<path d="M939 1188 c0 -2 -2 -14 -5 -28 -3 -18 -2 -21 5 -10 5 8 7 18 4 23 -3
5 5 6 18 2 19 -5 21 -4 9 4 -14 10 -29 14 -31 9z"/>
<path d="M996 1173 c-6 -14 -5 -15 5 -6 7 7 10 15 7 18 -3 3 -9 -2 -12 -12z"/>
<path d="M1029 1156 c5 -6 7 -19 6 -28 -2 -9 4 -23 13 -30 15 -11 15 -11 6 2
-6 8 -10 27 -9 41 1 15 -3 26 -11 26 -9 0 -10 -5 -5 -11z"/>
<path d="M1090 1151 c-8 -6 -18 -7 -24 -4 -5 4 -6 1 -2 -6 5 -7 11 -10 14 -7
3 3 10 2 16 -4 8 -6 12 -3 12 11 0 10 0 19 -1 19 0 0 -7 -4 -15 -9z"/>
<path d="M950 1139 c0 -5 5 -7 10 -4 6 3 10 8 10 11 0 2 -4 4 -10 4 -5 0 -10
-5 -10 -11z"/>
<path d="M920 1110 c6 -11 12 -20 14 -20 2 0 2 9 -1 20 -3 11 -9 20 -15 20 -5
0 -4 -9 2 -20z"/>
<path d="M970 1126 c0 -2 7 -7 16 -10 8 -3 12 -2 9 4 -6 10 -25 14 -25 6z"/>
<path d="M736 1085 c4 -8 8 -15 10 -15 2 0 4 7 4 15 0 8 -4 15 -10 15 -5 0 -7
-7 -4 -15z"/>
<path d="M1010 1096 c0 -2 8 -10 18 -17 15 -13 16 -12 3 4 -13 16 -21 21 -21
13z"/>
<path d="M764 1082 c3 -6 -2 -15 -11 -21 -10 -6 -13 -11 -7 -11 20 0 37 27 23
36 -7 4 -9 3 -5 -4z"/>
<path d="M797 1083 c-4 -3 -7 -11 -7 -17 0 -6 5 -5 12 2 6 6 9 14 7 17 -3 3
-9 2 -12 -2z"/>
<path d="M900 1082 c0 -5 7 -9 15 -9 8 0 12 4 9 9 -3 4 -9 8 -15 8 -5 0 -9 -4
-9 -8z"/>
<path d="M828 1068 c-12 -10 -13 -18 -7 -33 9 -18 9 -18 5 3 -3 18 -1 22 10
18 10 -4 12 -2 8 6 -5 8 -2 9 10 5 10 -4 15 -3 11 3 -8 13 -18 13 -37 -2z"/>
<path d="M876 1055 c-9 -26 -7 -32 5 -12 6 10 9 21 6 23 -2 3 -7 -2 -11 -11z"/>
<path d="M949 1057 c6 -8 7 -18 3 -22 -4 -5 -1 -5 6 -1 10 6 10 11 1 22 -6 8
-14 14 -16 14 -3 0 0 -6 6 -13z"/>
<path d="M717 1043 c-12 -11 -8 -23 9 -23 8 0 13 -4 10 -8 -2 -4 0 -14 5 -22
7 -11 8 -9 6 9 -2 14 -9 27 -15 29 -7 2 -10 8 -6 13 6 10 0 12 -9 2z"/>
<path d="M770 1042 c0 -4 10 -9 22 -9 18 -2 20 0 8 7 -18 12 -30 13 -30 2z"/>
<path d="M670 1021 c0 -6 5 -11 11 -11 8 0 7 -6 -2 -17 -13 -15 -12 -15 8 -2
12 7 21 14 20 14 -1 0 -10 7 -19 14 -12 9 -18 10 -18 2z"/>
<path d="M760 1015 c0 -5 5 -17 10 -25 5 -8 10 -10 10 -5 0 6 -5 17 -10 25 -5
8 -10 11 -10 5z"/>
<path d="M850 1001 c0 -6 4 -13 10 -16 6 -3 7 1 4 9 -7 18 -14 21 -14 7z"/>
<path d="M999 993 c-13 -16 -12 -17 4 -4 9 7 17 15 17 17 0 8 -8 3 -21 -13z"/>
<path d="M1085 991 c-3 -6 5 -15 17 -21 21 -10 21 -10 6 3 -10 8 -15 17 -11
20 3 4 4 7 0 7 -3 0 -8 -4 -12 -9z"/>
<path d="M695 981 c-3 -5 0 -13 6 -17 8 -5 9 -3 4 6 -6 10 -4 12 8 7 10 -3 17
-2 17 3 0 13 -27 13 -35 1z"/>
<path d="M1057 975 c-4 -8 -3 -16 1 -19 4 -3 9 4 9 15 2 23 -3 25 -10 4z"/>
<path d="M797 969 c12 -15 55 -20 68 -8 3 3 -7 5 -22 4 -16 -1 -35 3 -43 9
-13 9 -13 9 -3 -5z"/>
<path d="M660 960 c0 -5 5 -10 10 -10 6 0 10 5 10 10 0 6 -4 10 -10 10 -5 0
-10 -4 -10 -10z"/>
<path d="M732 961 c-11 -7 -11 -9 0 -14 9 -3 15 1 15 9 0 8 -1 14 -1 14 -1 0
-7 -4 -14 -9z"/>
<path d="M1255 949 c-4 -6 -4 -13 -1 -16 3 -4 6 -1 6 6 0 7 5 9 12 5 7 -4 8
-3 4 4 -9 15 -13 15 -21 1z"/>
<path d="M636 933 c-6 -14 -5 -15 5 -6 7 7 10 15 7 18 -3 3 -9 -2 -12 -12z"/>
<path d="M930 940 c0 -5 5 -10 11 -10 5 0 7 5 4 10 -3 6 -8 10 -11 10 -2 0 -4
-4 -4 -10z"/>
<path d="M1095 940 c3 -5 8 -10 11 -10 2 0 4 5 4 10 0 6 -5 10 -11 10 -5 0 -7
-4 -4 -10z"/>
<path d="M1136 942 c-3 -5 1 -9 9 -9 8 0 12 4 9 9 -3 4 -7 8 -9 8 -2 0 -6 -4
-9 -8z"/>
<path d="M690 926 c0 -2 7 -7 16 -10 8 -3 12 -2 9 4 -6 10 -25 14 -25 6z"/>
<path d="M1160 920 c-9 -6 -10 -10 -3 -10 6 0 15 5 18 10 8 12 4 12 -15 0z"/>
<path d="M1215 920 c-3 -6 1 -7 9 -4 18 7 21 14 7 14 -6 0 -13 -4 -16 -10z"/>
<path d="M520 911 c0 -7 -4 -9 -10 -6 -5 3 -10 1 -10 -4 0 -6 4 -11 9 -11 13
0 25 20 17 27 -3 4 -6 1 -6 -6z"/>
<path d="M630 900 c0 -5 5 -10 10 -10 6 0 10 5 10 10 0 6 -4 10 -10 10 -5 0
-10 -4 -10 -10z"/>
<path d="M2090 900 c0 -5 5 -10 11 -10 5 0 7 5 4 10 -3 6 -8 10 -11 10 -2 0
-4 -4 -4 -10z"/>
<path d="M591 884 c0 -11 3 -14 6 -6 3 7 2 16 -1 19 -3 4 -6 -2 -5 -13z"/>
<path d="M680 885 c0 -2 6 -8 13 -14 10 -8 14 -7 14 2 0 8 -6 14 -14 14 -7 0
-13 -1 -13 -2z"/>
<path d="M535 861 c-3 -5 0 -13 6 -17 7 -4 9 -3 5 4 -3 5 0 13 6 15 9 4 10 6
1 6 -6 1 -14 -3 -18 -8z"/>
<path d="M577 859 c7 -7 15 -10 18 -7 3 3 -2 9 -12 12 -14 6 -15 5 -6 -5z"/>
<path d="M895 859 c-3 -4 2 -6 10 -5 21 3 28 13 10 13 -9 0 -18 -4 -20 -8z"/>
<path d="M404 848 c-3 -5 1 -17 10 -26 10 -11 16 -12 16 -4 0 7 -4 12 -10 12
-5 0 -10 4 -10 9 0 5 11 9 25 9 13 0 23 -4 20 -7 -2 -4 5 -12 16 -19 23 -15
25 -6 2 16 -19 20 -60 26 -69 10z"/>
<path d="M510 849 c0 -5 -4 -7 -10 -4 -6 4 -7 -1 -3 -11 4 -11 8 -13 11 -6 2
7 8 10 13 7 5 -4 6 1 3 9 -7 18 -14 21 -14 5z"/>
<path d="M790 856 c0 -2 8 -10 18 -17 15 -13 16 -12 3 4 -13 16 -21 21 -21 13z"/>
<path d="M556 835 c-9 -26 -7 -32 5 -12 6 10 9 21 6 23 -2 3 -7 -2 -11 -11z"/>
<path d="M604 839 c-4 -7 -3 -9 4 -5 5 3 13 0 15 -6 4 -9 6 -10 6 -1 1 17 -16
25 -25 12z"/>
<path d="M675 840 c-3 -5 -1 -10 4 -10 6 0 11 5 11 10 0 6 -2 10 -4 10 -3 0
-8 -4 -11 -10z"/>
<path d="M730 841 c0 -6 4 -12 8 -15 5 -3 9 1 9 9 0 8 -4 15 -9 15 -4 0 -8 -4
-8 -9z"/>
<path d="M432 804 c-7 -8 -8 -14 -3 -14 10 0 25 19 20 25 -2 1 -10 -3 -17 -11z"/>
<path d="M530 811 c0 -6 4 -13 10 -16 6 -3 7 1 4 9 -7 18 -14 21 -14 7z"/>
<path d="M592 815 c4 -4 3 -16 -3 -26 -5 -11 -7 -19 -5 -19 3 0 10 9 16 19 7
15 7 22 -2 27 -7 4 -10 4 -6 -1z"/>
<path d="M390 803 c0 -5 5 -15 10 -23 7 -12 9 -10 7 8 -1 19 -17 33 -17 15z"/>
<path d="M466 796 c6 -15 4 -17 -6 -11 -9 6 -11 4 -5 -4 5 -9 10 -10 18 -2 8
8 7 14 -2 24 -10 10 -11 8 -5 -7z"/>
<path d="M513 792 c2 -12 6 -24 10 -28 3 -4 4 4 2 16 -6 30 -16 40 -12 12z"/>
<path d="M690 799 c0 -5 5 -7 10 -4 6 3 10 8 10 11 0 2 -4 4 -10 4 -5 0 -10
-5 -10 -11z"/>
<path d="M609 763 c-13 -16 -12 -17 4 -4 9 7 17 15 17 17 0 8 -8 3 -21 -13z"/>
<path d="M435 760 c27 -12 43 -12 25 0 -8 5 -22 9 -30 9 -10 0 -8 -3 5 -9z"/>
<path d="M484 759 c-3 -6 -1 -16 5 -22 9 -9 10 -7 5 7 -6 15 -4 17 6 11 9 -5
11 -4 6 3 -9 15 -13 15 -22 1z"/>
<path d="M640 760 c-9 -6 -10 -10 -3 -10 6 0 15 5 18 10 8 12 4 12 -15 0z"/>
<path d="M680 760 c-9 -6 -10 -10 -3 -10 6 0 15 5 18 10 8 12 4 12 -15 0z"/>
<path d="M739 768 c-5 -18 -6 -38 -1 -34 7 8 12 36 6 36 -2 0 -4 -1 -5 -2z"/>
<path d="M419 748 c-8 -27 -5 -36 9 -30 10 4 12 7 4 10 -7 2 -10 8 -6 13 3 5
3 9 0 9 -3 0 -6 -1 -7 -2z"/>
<path d="M561 736 c-9 -11 -9 -16 1 -22 7 -4 10 -4 6 1 -4 4 -3 14 3 22 6 7 9
13 6 13 -2 0 -10 -6 -16 -14z"/>
<path d="M590 736 c0 -2 8 -10 18 -17 15 -13 16 -12 3 4 -13 16 -21 21 -21 13z"/>
<path d="M385 720 c-3 -5 -1 -10 4 -10 6 0 11 5 11 10 0 6 -2 10 -4 10 -3 0
-8 -4 -11 -10z"/>
<path d="M481 696 c-9 -11 -9 -16 1 -22 7 -4 10 -4 6 1 -4 4 -3 14 3 22 6 7 9
13 6 13 -2 0 -10 -6 -16 -14z"/>
<path d="M515 703 c3 -3 0 -11 -5 -18 -7 -8 -5 -12 4 -12 14 0 16 22 3 32 -4
3 -5 2 -2 -2z"/>
<path d="M549 698 c7 -9 9 -23 5 -30 -6 -10 -4 -11 7 0 11 10 10 15 -6 30 -17
15 -18 15 -6 0z"/>
<path d="M655 699 c-3 -4 2 -6 10 -5 21 3 28 13 10 13 -9 0 -18 -4 -20 -8z"/>
<path d="M580 640 c-9 -6 -10 -10 -3 -10 6 0 15 5 18 10 8 12 4 12 -15 0z"/>
<path d="M625 640 c-3 -6 1 -7 9 -4 18 7 21 14 7 14 -6 0 -13 -4 -16 -10z"/>
<path d="M416 595 c4 -8 8 -15 10 -15 2 0 4 7 4 15 0 8 -4 15 -10 15 -5 0 -7
-7 -4 -15z"/>
<path d="M495 591 c-3 -5 -2 -12 3 -15 5 -3 9 1 9 9 0 17 -3 19 -12 6z"/>
<path d="M606 361 c-4 -5 -2 -12 3 -15 5 -4 12 -2 15 3 4 5 2 12 -3 15 -5 4
-12 2 -15 -3z"/>
<path d="M673 312 c10 -10 14 -22 10 -27 -5 -4 -2 -5 5 -1 11 6 10 12 -4 27
-9 10 -19 19 -22 19 -3 0 2 -8 11 -18z"/>
<path d="M781 243 c-1 -7 8 -17 19 -23 14 -7 20 -7 20 0 0 5 -6 10 -14 10 -8
0 -17 6 -19 13 -4 9 -6 9 -6 0z"/>
<path d="M831 204 c0 -11 3 -14 6 -6 3 7 2 16 -1 19 -3 4 -6 -2 -5 -13z"/>
<path d="M1580 209 c0 -5 5 -7 10 -4 6 3 10 8 10 11 0 2 -4 4 -10 4 -5 0 -10
-5 -10 -11z"/>
<path d="M850 199 c0 -5 5 -7 10 -4 6 3 10 8 10 11 0 2 -4 4 -10 4 -5 0 -10
-5 -10 -11z"/>
<path d="M1010 166 c0 -3 9 -10 20 -16 11 -6 20 -8 20 -6 0 3 -9 10 -20 16
-11 6 -20 8 -20 6z"/>
<path d="M1035 1560 c-3 -5 -1 -10 4 -10 6 0 11 5 11 10 0 6 -2 10 -4 10 -3 0
-8 -4 -11 -10z"/>
<path d="M1055 1551 c-3 -12 -10 -19 -15 -16 -4 3 -13 -2 -20 -10 -9 -11 -9
-15 -1 -15 7 0 10 -4 7 -8 -2 -4 6 -8 20 -8 27 0 30 6 12 26 -11 12 -10 12 3
2 9 -6 19 -9 23 -5 4 4 4 0 0 -10 -3 -9 -4 -17 -1 -17 14 0 13 31 -3 55 -17
26 -18 27 -25 6z m-11 -37 c3 -8 2 -12 -4 -9 -6 3 -10 10 -10 16 0 14 7 11 14
-7z"/>
<path d="M990 1521 c-13 -25 -13 -28 4 -28 7 0 14 11 14 24 0 28 -4 29 -18 4z"/>
<path d="M860 1492 c0 -17 26 -32 36 -22 7 7 9 0 8 -18 -2 -43 -3 -43 -23 -32
-17 8 -20 7 -18 -10 1 -10 3 -17 6 -15 2 3 12 -1 20 -9 11 -10 21 -12 31 -6
13 9 13 10 0 11 -8 1 -19 1 -23 0 -5 -1 -6 3 -2 9 3 6 10 8 15 5 4 -3 13 2 20
10 7 8 16 13 20 10 5 -3 12 -1 15 5 5 7 11 8 19 1 8 -7 12 -4 12 9 0 18 -2 18
-23 5 -20 -14 -23 -13 -43 13 -12 15 -27 27 -33 27 -7 0 -18 4 -24 8 -7 5 -13
4 -13 -1z m74 -63 c-3 -5 -11 -9 -17 -8 -8 0 -8 2 1 6 10 4 10 8 0 21 -12 15
-11 16 4 3 10 -7 15 -17 12 -22z"/>
<path d="M785 1410 c3 -5 8 -10 11 -10 2 0 4 5 4 10 0 6 -5 10 -11 10 -5 0 -7
-4 -4 -10z"/>
<path d="M834 1381 c1 -27 -2 -37 -11 -34 -7 3 -11 8 -9 12 2 3 -7 7 -20 7
-46 3 -19 -23 34 -32 8 -1 17 -6 20 -10 4 -4 -1 -4 -11 -1 -12 4 -16 3 -11 -4
3 -6 -5 -3 -20 6 -24 16 -26 16 -20 1 8 -20 -9 -21 -25 -2 -14 17 -48 17 -55
1 -2 -7 7 -11 25 -10 16 1 26 -2 22 -8 -4 -6 -1 -7 8 -2 11 7 11 5 -1 -11 -22
-29 -24 -30 -17 -11 8 21 -6 22 -23 2 -10 -12 -16 -13 -26 -4 -11 9 -18 8 -29
-1 -9 -7 -25 -13 -38 -14 -15 -1 -22 -7 -21 -19 1 -10 -6 -23 -16 -29 -17 -11
-17 -14 -3 -37 l15 -26 -20 25 c-11 13 -18 28 -16 32 2 3 0 9 -6 13 -5 3 -10
3 -11 -2 0 -4 -2 -19 -5 -33 -3 -19 -2 -22 6 -10 9 13 12 13 21 -2 5 -10 18
-22 28 -28 15 -8 22 -5 36 16 9 15 13 24 7 20 -5 -3 -12 1 -16 9 -3 8 0 17 6
21 7 5 8 2 3 -7 -7 -11 -6 -12 6 -2 12 10 18 10 27 1 9 -9 15 -9 25 1 10 10 9
12 -3 9 -16 -3 -21 23 -6 34 12 8 37 -2 30 -13 -10 -17 5 -9 31 17 14 14 29
23 34 20 5 -3 12 1 15 9 3 8 9 14 13 13 4 -1 18 3 30 10 12 6 29 9 37 6 9 -3
16 -1 16 6 0 6 -4 8 -10 5 -5 -3 -10 -1 -10 5 0 6 -4 9 -9 6 -5 -3 -11 1 -15
9 -3 8 -2 17 3 19 11 7 7 49 -6 53 -6 2 -9 -13 -9 -36z m-19 -71 c4 -6 3 -9
-2 -8 -4 1 -19 -4 -33 -11 l-25 -12 25 20 c30 24 27 24 35 11z m-81 -51 c-3
-5 -10 -7 -15 -3 -5 3 -7 10 -3 15 3 5 10 7 15 3 5 -3 7 -10 3 -15z m-67 -14
c0 -8 -3 -15 -6 -16 -38 -5 -48 -4 -48 8 0 8 6 12 12 9 7 -2 18 0 26 5 8 5 14
9 15 9 0 0 1 -7 1 -15z m-50 -53 c7 -12 8 -24 2 -33 -6 -10 -9 -11 -10 -1 -3
22 -4 27 -12 40 -5 6 -4 12 0 12 5 0 13 -8 20 -18z"/>
<path d="M947 1342 c-20 -22 -21 -32 -5 -32 6 0 8 3 5 7 -4 3 0 15 10 25 9 10
14 18 11 18 -3 0 -12 -8 -21 -18z"/>
<path d="M467 1139 c-9 -9 -12 -20 -9 -24 4 -4 7 -18 7 -32 1 -19 -1 -22 -10
-11 -12 16 -50 24 -40 9 3 -6 -5 -16 -19 -23 -20 -9 -23 -14 -15 -25 11 -12 2
-18 -23 -14 -12 2 -10 -17 2 -24 6 -3 10 -1 10 6 0 7 6 4 14 -7 8 -10 18 -16
22 -11 4 4 1 7 -6 7 -9 0 -7 5 5 14 11 8 25 11 32 9 8 -3 13 -2 12 3 -4 25 3
33 29 30 23 -3 28 0 29 17 2 25 52 69 66 60 6 -3 7 -1 4 5 -11 16 -33 9 -57
-18 l-21 -25 17 28 c9 15 14 31 10 34 -13 13 -45 9 -59 -8z m42 -5 c-7 -9 -14
-30 -14 -47 0 -18 -7 -32 -15 -35 -13 -3 -13 -2 0 7 8 6 10 11 4 11 -6 0 -11
15 -11 33 0 17 2 26 5 19 3 -10 8 -7 19 7 8 12 17 21 20 21 3 0 -1 -7 -8 -16z
m-66 -90 c-4 -12 -8 -13 -13 -4 -5 9 -10 6 -15 -9 -8 -27 -20 -27 -22 1 -2 18
0 20 7 8 8 -13 10 -13 10 2 0 16 19 29 32 21 4 -2 4 -11 1 -19z"/>
<path d="M318 949 c-7 -4 -9 -12 -4 -16 5 -4 11 -2 13 5 3 6 9 10 13 7 5 -3
11 -2 14 3 6 11 -19 11 -36 1z"/>
<path d="M329 928 c-7 -25 -5 -45 8 -64 8 -13 11 -29 7 -36 -6 -9 -3 -9 10 1
12 11 14 16 5 22 -7 4 -12 23 -12 43 0 20 -4 36 -9 36 -4 0 -8 -1 -9 -2z"/>
<path d="M880 1230 c-6 -11 -8 -20 -6 -20 3 0 10 9 16 20 6 11 8 20 6 20 -3 0
-10 -9 -16 -20z"/>
<path d="M826 1134 c-9 -23 -4 -24 17 -2 13 14 14 18 3 18 -8 0 -17 -7 -20
-16z"/>
<path d="M726 1205 c-11 -8 -15 -15 -9 -15 6 0 16 7 23 15 16 19 11 19 -14 0z"/>
<path d="M706 1172 c-3 -5 1 -9 9 -9 8 0 12 4 9 9 -3 4 -7 8 -9 8 -2 0 -6 -4
-9 -8z"/>
<path d="M646 1113 c-6 -14 -5 -15 5 -6 7 7 10 15 7 18 -3 3 -9 -2 -12 -12z"/>
<path d="M415 940 c-3 -5 -1 -10 5 -10 6 0 8 -5 4 -12 -4 -7 -3 -8 5 -4 6 4 9
11 6 16 -3 4 1 11 7 13 8 4 7 6 -4 6 -9 1 -20 -3 -23 -9z"/>
<path d="M1296 2078 c3 -5 10 -6 15 -3 13 9 11 12 -6 12 -8 0 -12 -4 -9 -9z"/>
<path d="M1665 1980 c-3 -6 1 -7 9 -4 18 7 21 14 7 14 -6 0 -13 -4 -16 -10z"/>
<path d="M390 1736 c0 -2 7 -7 16 -10 8 -3 12 -2 9 4 -6 10 -25 14 -25 6z"/>
<path d="M2096 1577 c3 -10 9 -15 12 -12 3 3 0 11 -7 18 -10 9 -11 8 -5 -6z"/>
<path d="M2147 1479 c7 -7 15 -10 18 -7 3 3 -2 9 -12 12 -14 6 -15 5 -6 -5z"/>
<path d="M2180 1440 c6 -11 13 -20 16 -20 2 0 0 9 -6 20 -6 11 -13 20 -16 20
-2 0 0 -9 6 -20z"/>
<path d="M155 1300 c-3 -5 -1 -10 4 -10 6 0 11 5 11 10 0 6 -2 10 -4 10 -3 0
-8 -4 -11 -10z"/>
<path d="M2233 798 c-11 -19 -12 -37 -2 -44 5 -3 9 -2 8 3 -1 4 0 10 1 13 4
12 8 40 5 40 -2 0 -7 -6 -12 -12z"/>
<path d="M358 392 c9 -10 19 -17 21 -16 6 5 -20 34 -30 34 -5 0 -1 -8 9 -18z"/>
<path d="M1980 345 c-11 -13 -10 -14 4 -9 9 3 16 10 16 15 0 13 -6 11 -20 -6z"/>
<path d="M441 303 c7 -12 15 -20 18 -17 3 2 -3 12 -13 22 -17 16 -18 16 -5 -5z"/>
<path d="M1835 209 c-4 -6 -5 -12 -2 -15 2 -3 7 2 10 11 7 17 1 20 -8 4z"/>
<path d="M1536 52 c-3 -5 1 -9 9 -9 8 0 12 4 9 9 -7 10 -11 10 -18 0z"/>
<path d="M1453 27 c-4 -6 -1 -7 7 -2 10 6 12 4 7 -8 -9 -23 0 -22 12 1 8 14 6
19 -5 19 -8 0 -18 -5 -21 -10z"/>
<path d="M920 20 c-9 -6 -10 -10 -3 -10 6 0 15 5 18 10 8 12 4 12 -15 0z"/>
<path d="M1496 22 c-3 -5 1 -9 9 -9 8 0 12 4 9 9 -7 10 -11 10 -18 0z"/>
</g>
</svg>
