<svg id="Layer_1" data-name="Layer 1" xmlns="http://www.w3.org/2000/svg" xmlns:xlink="http://www.w3.org/1999/xlink" viewBox="0 0 300 300"><defs><style>.cls-1{fill:url(#linear-gradient);}.cls-2{fill:url(#linear-gradient-2);}.cls-3,.cls-4{fill:#29292b;stroke-miterlimit:10;}.cls-3{stroke:url(#linear-gradient-3);}.cls-4{stroke:url(#linear-gradient-4);}</style><linearGradient id="linear-gradient" x1="255.84" y1="201.16" x2="184.9" y2="130.21" gradientTransform="matrix(1, 0, 0, -1, 0, 302)" gradientUnits="userSpaceOnUse"><stop offset="0.63" stop-color="#f1dd97"/><stop offset="1" stop-color="#cbad59"/></linearGradient><linearGradient id="linear-gradient-2" x1="113.4" y1="115.35" x2="241.96" y2="338.01" gradientTransform="matrix(1, 0, 0, -1, 0, 302)" gradientUnits="userSpaceOnUse"><stop offset="0" stop-color="#f1dd97"/><stop offset="1" stop-color="#cbad59"/></linearGradient><linearGradient id="linear-gradient-3" x1="218.45" y1="204.63" x2="178.54" y2="164.72" xlink:href="#linear-gradient"/><linearGradient id="linear-gradient-4" x1="194.06" y1="197.3" x2="88.23" y2="91.47" xlink:href="#linear-gradient"/></defs><title>300x300</title><path class="cls-1" d="M270.8,134H175.92c-10.57,0-12.64-3.32-11.32-8.91h0c-3.42,9-8.7,22.25-8.34,31.29.38,9.53,8.23,12.56,17.27,13.36h80.35Z"/><path class="cls-2" d="M173.53,169.77H144.46c-19.65,0-23.75-14.45-19.28-31.36,5.81-22,28.6-63,38.54-84.9-5.23-1.49-20.38-1.45-23.83,0,32.49-19.13,85-53,85-53s-38.38,74.51-57,116.06c-1.34,2.75-11.7,30.37-11.33,39.75S164.11,168.54,173.53,169.77Z"/><path class="cls-3" d="M210,89.63a85.91,85.91,0,0,0-17.09-13.08c-7,14-22.51,47.05-23.29,49.7h0a2.13,2.13,0,0,0,1.6,2.54h.07c1.68.31,61.44.41,61.44.41a83.46,83.46,0,0,0-4.25-12.61A84.48,84.48,0,0,0,210,89.63Z"/><path class="cls-4" d="M173.91,174.59h-29.5c-9.57,0-16.71-2.94-21.23-8.72-5.22-6.68-6.29-16.58-3.08-28.61,3.59-16,16.19-40.31,27.32-61.73,1.92-3.69,3.78-7.28,5.52-10.68-1.29-.06-2.57-.09-3.87-.09A86.46,86.46,0,0,0,88.15,89.63a84.06,84.06,0,0,0,0,120.11,86.91,86.91,0,0,0,121.85,0,83.91,83.91,0,0,0,21.46-35.11Z"/></svg>