<svg id="Layer_1" data-name="Layer 1" xmlns="http://www.w3.org/2000/svg" xmlns:xlink="http://www.w3.org/1999/xlink" viewBox="0 0 1000 1000"><defs><style>.cls-1{fill:#29292b;}.cls-2,.cls-3{fill-rule:evenodd;}.cls-2{fill:url(#linear-gradient);}.cls-3{fill:url(#linear-gradient-2);}</style><linearGradient id="linear-gradient" x1="366.09" y1="637.31" x2="806.21" y2="-124.99" gradientUnits="userSpaceOnUse"><stop offset="0" stop-color="#f1dd97"/><stop offset="1" stop-color="#cbad59"/></linearGradient><linearGradient id="linear-gradient-2" x1="853.79" y1="343.56" x2="611.36" y2="585.98" gradientUnits="userSpaceOnUse"><stop offset="0.63" stop-color="#f1dd97"/><stop offset="1" stop-color="#cbad59"/></linearGradient></defs><title>Favicon_1</title><path class="cls-1" d="M693.69,305.14A290.34,290.34,0,0,0,636,260.38c-23.79,47.93-47.21,96.27-68.45,143.68-4.18,9.35-8.42,19.09-10.13,26.37h0l0,.13a7.29,7.29,0,0,0,5.66,8.74,84.88,84.88,0,0,0,17.11,1.39H770.35a290.15,290.15,0,0,0-76.66-135.55Z"/><path class="cls-2" d="M572,579.53H472.42c-67.28,0-81.32-49.48-66-107.38,19.88-75.26,97.92-215.8,132-290.66-17.92-5.09-69.78-5-81.58,0C568,116,747.67,0,747.67,0S616.26,255.06,552.55,397.33c-5,11.06-9.16,20.94-11.13,29.33-11.24,30.26-28.91,74.64-27.63,106.74C515.08,566,539.69,575.32,572,579.53Z"/><path class="cls-3" d="M905,457.16H580.19c-36.19,0-43.28-11.37-38.77-30.5h0c-11.34,30.83-28.86,75.78-27.62,106.74,1.29,32.61,25.9,41.92,58.16,46.13H847.08Z"/><path class="cls-1" d="M572,596H472.42c-32.28,0-56.38-10-71.62-29.82-17.63-22.9-21.22-56.76-10.4-97.95,12.12-55,54.63-138,92.16-211.34,6.47-12.65,12.75-24.92,18.63-36.58q-6.49-.3-13-.31a290.7,290.7,0,1,0,278,376Z"/></svg>