<?xml version="1.0" standalone="no"?>
<!DOCTYPE svg PUBLIC "-//W3C//DTD SVG 20010904//EN"
 "http://www.w3.org/TR/2001/REC-SVG-20010904/DTD/svg10.dtd">
<svg version="1.0" xmlns="http://www.w3.org/2000/svg"
 width="200.000000pt" height="200.000000pt" viewBox="0 0 200.000000 200.000000"
 preserveAspectRatio="xMidYMid meet">
<metadata>
Created by potrace 1.11, written by Peter Selinger 2001-2013
</metadata>
<g transform="translate(0.000000,200.000000) scale(0.100000,-0.100000)"
fill="#000000" stroke="none">
<path d="M1001 1334 c-96 -14 -211 -31 -255 -39 l-81 -14 90 5 c50 3 153 12
230 20 176 18 374 18 440 0 106 -28 179 -85 206 -160 15 -43 29 -47 29 -8 0
76 -43 148 -109 181 -94 48 -278 53 -550 15z"/>
<path d="M990 1295 c-74 -7 -181 -17 -237 -21 -57 -4 -103 -11 -103 -15 0 -5
19 -26 42 -49 64 -61 158 -101 158 -67 0 9 3 8 9 -2 6 -10 13 -11 29 -2 28 15
108 14 135 -1 19 -11 12 -14 -58 -18 l-80 -5 60 -13 c163 -35 242 -71 230
-104 -10 -26 -79 -62 -266 -139 -204 -84 -371 -161 -429 -198 l-35 -23 45 6
c176 23 337 38 475 44 l161 7 80 48 c47 27 93 47 110 47 l29 0 -25 -20 c-14
-11 -44 -30 -67 -42 -24 -13 -43 -26 -43 -30 0 -5 30 -8 68 -8 80 0 205 -14
319 -37 l82 -16 48 36 c102 75 163 158 163 219 0 32 -32 81 -74 113 -70 53
-240 95 -457 111 -76 5 -77 6 -83 36 -12 60 -112 118 -200 118 -53 -1 -119
-20 -161 -47 -22 -15 -34 -19 -27 -10 54 65 232 85 327 37 37 -19 55 -36 70
-66 l20 -41 98 -7 c88 -6 158 -16 210 -32 18 -6 18 -4 2 26 -28 54 -93 117
-143 138 -100 43 -231 50 -482 27z m244 -136 c19 -32 20 -39 5 -39 -5 0 -8 4
-4 9 3 6 -9 27 -27 47 -22 25 -26 33 -12 24 12 -7 29 -26 38 -41z m-40 -14 c9
-14 12 -25 6 -25 -5 0 -10 5 -10 10 0 6 -12 23 -27 37 -21 19 -23 23 -7 15 12
-6 29 -23 38 -37z m-65 -19 c-3 -3 -11 5 -18 17 -13 21 -12 21 5 5 10 -10 16
-20 13 -22z m124 -33 c-7 -2 -19 -2 -25 0 -7 3 -2 5 12 5 14 0 19 -2 13 -5z
m60 -10 c-7 -2 -19 -2 -25 0 -7 3 -2 5 12 5 14 0 19 -2 13 -5z m72 -13 l20 -9
-20 0 c-11 0 -29 4 -40 9 l-20 9 20 0 c11 0 29 -4 40 -9z m80 -40 c8 -13 -5
-13 -25 0 -13 8 -13 10 2 10 9 0 20 -4 23 -10z m35 -60 c0 -23 -4 -30 -20 -30
-15 0 -19 6 -17 30 3 42 37 42 37 0z m-36 -82 c-32 -37 -48 -47 -76 -48 l-28
0 38 35 c20 19 48 35 61 35 24 0 24 0 5 -22z"/>
<path d="M950 1068 c43 -29 46 -41 19 -67 -35 -33 -121 -69 -352 -147 -274
-93 -371 -133 -469 -192 -73 -43 -101 -71 -60 -58 9 3 70 10 135 16 96 8 125
15 156 34 76 48 244 127 417 196 205 82 262 110 289 140 l20 22 -27 23 c-24
21 -116 55 -149 55 -6 0 3 -10 21 -22z"/>
</g>
</svg>
