<svg id="Layer_1" data-name="Layer 1" xmlns="http://www.w3.org/2000/svg" xmlns:xlink="http://www.w3.org/1999/xlink" viewBox="0 0 300 300"><defs><style>.cls-1{fill:url(#linear-gradient);}.cls-2{fill:url(#linear-gradient-2);}.cls-3{fill:url(#linear-gradient-3);}.cls-4{fill:url(#linear-gradient-4);}</style><linearGradient id="linear-gradient" x1="251.81" y1="-1368.71" x2="174.12" y2="-1446.4" gradientTransform="matrix(1, 0, 0, -1, 0, -1227.23)" gradientUnits="userSpaceOnUse"><stop offset="0.63" stop-color="#f1dd97"/><stop offset="1" stop-color="#cbad59"/></linearGradient><linearGradient id="linear-gradient-2" x1="96.15" y1="-1450.88" x2="250.14" y2="-1184.16" gradientTransform="matrix(1, 0, 0, -1, 0, -1227.23)" gradientUnits="userSpaceOnUse"><stop offset="0" stop-color="#f1dd97"/><stop offset="1" stop-color="#cbad59"/></linearGradient><linearGradient id="linear-gradient-3" x1="260.46" y1="111.56" x2="202.6" y2="111.56" gradientTransform="matrix(1, 0, 0, 1, 0, 0)" xlink:href="#linear-gradient-2"/><linearGradient id="linear-gradient-4" x1="257.75" y1="178.61" x2="22.19" y2="178.61" gradientTransform="matrix(1, 0, 0, 1, 0, 0)" xlink:href="#linear-gradient-2"/></defs><title>300x300</title><path class="cls-1" d="M272.62,205.4c5.5-13.92,11.38-44.72-6.29-44.72H183.42c-8.82,0-26.6,1-23.41-12.14-4.68,13-17.62,37.55-6.41,50.07,7.33,8.19,20.46,6.68,30.35,6.68C200.65,205.29,255.92,205.4,272.62,205.4Z"/><path class="cls-2" d="M171.5,205.29H134.55c-21.29,0-28.48-21.64-24.51-39.86,6.17-28.22,41.83-91.12,54.46-118.91a85.59,85.59,0,0,0-30.23-1C173.71,26.6,190.92,18.13,228.48,0c-23.65,52.81-40.59,84.86-64.24,137.67-1.84,4.1-14.86,38.62-14.38,50.5C150.38,200.27,159.51,203.73,171.5,205.29Z"/><path class="cls-3" d="M247.15,147.17h13.31A121.32,121.32,0,0,0,208,76v0l-5.49,11.5A108.08,108.08,0,0,1,247.15,147.17Z"/><path class="cls-4" d="M243.91,218.86A108.49,108.49,0,1,1,138,70l6.37-12.78h-1A121.39,121.39,0,1,0,257.75,218.86Z"/></svg>