<svg id="Layer_1" data-name="Layer 1" xmlns="http://www.w3.org/2000/svg" xmlns:xlink="http://www.w3.org/1999/xlink" viewBox="0 0 300 300"><defs><style>.cls-1,.cls-2{fill-rule:evenodd;}.cls-1{fill:url(#linear-gradient);}.cls-2{fill:url(#linear-gradient-2);}.cls-3,.cls-4{fill:#29292b;stroke-miterlimit:10;stroke-width:0.75px;}.cls-3{stroke:url(#linear-gradient-3);}.cls-4{stroke:url(#linear-gradient-4);}</style><linearGradient id="linear-gradient" x1="255.86" y1="100.85" x2="185.05" y2="171.66" gradientUnits="userSpaceOnUse"><stop offset="0.63" stop-color="#f1dd97"/><stop offset="1" stop-color="#cbad59"/></linearGradient><linearGradient id="linear-gradient-2" x1="113.4" y1="186.65" x2="241.96" y2="-36.01" gradientUnits="userSpaceOnUse"><stop offset="0" stop-color="#f1dd97"/><stop offset="1" stop-color="#cbad59"/></linearGradient><linearGradient id="linear-gradient-3" x1="218.35" y1="97.44" x2="178.61" y2="137.18" xlink:href="#linear-gradient"/><linearGradient id="linear-gradient-4" x1="193.89" y1="104.85" x2="88.32" y2="210.42" xlink:href="#linear-gradient"/></defs><title>300x300</title><path class="cls-1" d="M270.82,134H175.94c-10.57,0-12.64-3.32-11.32-8.91h0c-3.42,9-8.43,22.14-8.07,31.18.38,9.53,7.57,12.24,17,13.47H253.9Z"/><path class="cls-2" d="M173.53,169.77H144.46c-19.65,0-23.75-14.45-19.28-31.36,5.81-22,28.6-63,38.54-84.9-5.23-1.49-20.38-1.45-23.83,0,32.49-19.13,85-53,85-53s-38.38,74.51-57,116.06a51,51,0,0,0-3.25,8.57c-3.29,8.84-8.45,21.8-8.08,31.18S164.11,168.54,173.53,169.77Z"/><path class="cls-3" d="M210,89.63a85.76,85.76,0,0,0-17.09-13.08c-7,14-14,28.12-20.29,42a48.08,48.08,0,0,0-3,7.7h0v0a2.12,2.12,0,0,0,1.67,2.55,25.46,25.46,0,0,0,5.08.41h56.36a83.11,83.11,0,0,0-4.25-12.61A84.52,84.52,0,0,0,210,89.63Z"/><path class="cls-4" d="M173.91,174.59h-29.5c-9.57,0-16.71-2.94-21.23-8.72-5.22-6.68-6.29-16.58-3.08-28.61,3.59-16,16.19-40.31,27.32-61.73,1.92-3.69,3.78-7.28,5.52-10.68-1.29-.06-2.57-.09-3.87-.09A86.46,86.46,0,0,0,88.15,89.63a84.36,84.36,0,0,0-18.47,27,84.08,84.08,0,0,0,0,66.11,84.36,84.36,0,0,0,18.47,27,86.91,86.91,0,0,0,121.85,0,83.86,83.86,0,0,0,21.46-35.11Z"/></svg>