<svg id="layer" xmlns="http://www.w3.org/2000/svg" viewBox="0 0 510 80"><title>Patreon</title><path d="M489.78,6.77H505V73.43H489L465.2,30.56V73.43H449.89V6.77h16l23.89,43.36V6.77ZM389.61,5c21.94,0,34.92,16.71,34.92,35s-13.07,35-34.92,35c-22.05,0-35-16.71-35-35S367.66,5,389.61,5ZM409,40.1C409,29.19,401.61,19,389.71,19c-12.1,0-19.32,10.23-19.32,21.14s7.32,21.14,19.32,21.14S409,51,409,40.1ZM142.63,20V6.77h45.26V20h-15V73.33H157.56V20ZM304.75,34.3h25.06V46.39h-25V61h25V73.43H289.53V6.77h40.28V19.16h-25V34.3ZM239.39,6.77c14.63,0,24.1,11.11,24.1,24.09,0,9.34-4.88,17.6-13.17,21.53l13.26,21H245.83l-11.7-18.49h-7.22V73.43H211.59V6.77ZM248,30.86c0-6.2-4.2-11.51-10.54-11.51H227v23h10.43C243.88,42.36,248,37.05,248,30.86ZM112.69,65.27H89.18l-2.54,8.06H70.35L94,6.67h14l23.9,66.66H115.32ZM101,25.74,92.89,53.17H109ZM32.7,6.77c14.63,0,24.09,11.11,24.09,24.09S47.33,54.94,32.7,54.94H20.31V73.43H5V6.77Zm8.68,24.09c0-6.2-4.19-11.51-10.53-11.51H20.31v23H30.75C37.19,42.36,41.38,37.05,41.38,30.86Z"/></svg>