<?xml version="1.0" encoding="UTF-8"?>
<!DOCTYPE svg PUBLIC "-//W3C//DTD SVG 1.1//EN" "http://www.w3.org/Graphics/SVG/1.1/DTD/svg11.dtd">
<!-- Creator: CorelDRAW X7 -->
<svg xmlns="http://www.w3.org/2000/svg" xml:space="preserve" width="210mm" height="148mm" version="1.1" style="shape-rendering:geometricPrecision; text-rendering:geometricPrecision; image-rendering:optimizeQuality; fill-rule:evenodd; clip-rule:evenodd"
viewBox="0 0 21000 14800"
 xmlns:xlink="http://www.w3.org/1999/xlink">
 <defs>
  <style type="text/css">
   <![CDATA[
    .str0 {stroke:#2B2A29;stroke-width:20}
    .fil0 {fill:#2B2A29}
   ]]>
  </style>
 </defs>
 <g id="Слой_x0020_1">
  <metadata id="CorelCorpID_0Corel-Layer"/>
  <g id="_2526119992192">
   <path class="fil0 str0" d="M10531 2013c3422,0 6196,2774 6196,6196 0,3422 -2774,6196 -6196,6196 -3422,0 -6196,-2774 -6196,-6196 0,-3422 2774,-6196 6196,-6196zm0 1089c2820,0 5107,2287 5107,5107 0,2821 -2287,5107 -5107,5107 -2821,0 -5107,-2286 -5107,-5107 0,-2820 2286,-5107 5107,-5107z"/>
   <path class="fil0 str0" d="M10531 8209l0 -4048c-2236,0 -4048,1813 -4048,4048 0,2236 1812,4048 4048,4048 1717,0 3247,-1084 3818,-2703l-3818 -1345z"/>
   <rect class="fil0" x="9936" y="1436" width="1304" height="902"/>
   <rect class="fil0 str0" x="9111" y="381" width="2954" height="1266" rx="261" ry="261"/>
  </g>
 </g>
</svg>
