<?xml version="1.0" encoding="utf-8"?>
<!-- Generator: Adobe Illustrator 21.1.0, SVG Export Plug-In . SVG Version: 6.00 Build 0)  -->
<svg width="60px" height="60px" version="1.1" id="Layer_1" xmlns="http://www.w3.org/2000/svg" xmlns:xlink="http://www.w3.org/1999/xlink" x="0px" y="0px"
	 viewBox="0 0 60 60" style="enable-background:new 0 0 60 60;" xml:space="preserve">
<style type="text/css">
	.st0{fill:#D8D8D8;fill-opacity:0;}
	.st1{fill:#24292E;}
	.st2{fill:#FFB200;}
</style>
<title>Group</title>
<desc>Created with Sketch.</desc>
<rect id="Rectangle" class="st0" width="60" height="60"/>
<circle id="Oval-5" class="st1" cx="30" cy="30" r="26"/>
<path id="Shape" class="st2" d="M32.4,25.3c-0.4,0-0.6,0.3-0.6,0.6v0c0,0.4,0.3,0.6,0.6,0.6s0.6-0.3,0.6-0.6
	C33,25.6,32.7,25.3,32.4,25.3z M34.8,25.3c-0.4,0-0.6,0.3-0.6,0.6v0c0,0.4,0.3,0.6,0.6,0.6s0.6-0.3,0.6-0.6
	C35.5,25.6,35.2,25.3,34.8,25.3z M37.3,25.3c-0.4,0-0.6,0.3-0.6,0.6v0c0,0.4,0.3,0.6,0.6,0.6c0.4,0,0.6-0.3,0.6-0.6
	C37.9,25.6,37.6,25.3,37.3,25.3z M43,21.9v7.3c0,1.7-1.4,3.1-3.1,3.1h-8.4c-0.2,0-0.3,0-0.4,0c-0.1,0-0.3,0-0.3,0
	c-0.1,0-0.2,0.2-0.3,0.3c-0.1,0-0.1,0.1-0.2,0.2L28,34.9c-0.2,0.2-0.5,0.2-0.7,0.1c-0.2-0.1-0.4-0.3-0.4-0.6v-6.8h-6.8
	c-1,0-1.8,0.8-1.8,1.8v7.3c0,1,0.8,1.8,1.8,1.8h9.3c0.2,0,0.3,0.1,0.4,0.2l1.9,1.8v-6.1c0-0.4,0.3-0.6,0.6-0.6
	c0.4,0,0.6,0.3,0.6,0.6v7.6c0,0.3-0.1,0.5-0.4,0.6c-0.1,0-0.2,0.1-0.3,0.1c-0.2,0-0.3-0.1-0.4-0.2l-2.8-2.6h-9.1
	c-1.7,0-3.1-1.4-3.1-3.1v-7.3c0-1.7,1.4-3.1,3.1-3.1h6.8v-4.4c0-1.7,1.4-3.1,3.1-3.1h9.9C41.6,18.8,43,20.2,43,21.9z M41.7,21.9
	c0-1-0.8-1.8-1.8-1.8H30c-1,0-1.9,0.8-1.9,1.8v5v6l1.3-1.2c0.1-0.1,0.1-0.1,0.2-0.2c0.6-0.5,0.7-0.6,1.5-0.6c0.1,0,0.2,0,0.4,0h8.4
	c1,0,1.8-0.8,1.8-1.8V21.9z"/>
</svg>
