<svg id="Layer_1" data-name="Layer 1" xmlns="http://www.w3.org/2000/svg" xmlns:xlink="http://www.w3.org/1999/xlink" viewBox="0 0 300 180.23"><defs><style>.cls-1{fill:#646bd9;}.cls-2{fill:url(#linear-gradient);}</style><linearGradient id="linear-gradient" x1="193.42" y1="336.63" x2="193.42" y2="385.36" gradientTransform="matrix(1, 0, 0, -1, 0, 442)" gradientUnits="userSpaceOnUse"><stop offset="0" stop-color="#dac16f"/><stop offset="0.5" stop-color="#feefac"/><stop offset="1" stop-color="#dac16f"/></linearGradient></defs><title>pie_fiolet_v2</title><path class="cls-1" d="M141.07,117.15H300V10A10,10,0,0,0,290,0H192.31Z"/><path class="cls-2" d="M196.74,105.37l-1.22-4.09a47.08,47.08,0,0,0-19.48-26l-4.21-2.74,7.62-16L184.92,60a64.88,64.88,0,0,1,28.15,38.14l1.93,7.21Z"/><path class="cls-1" d="M150.09,180a65,65,0,1,1,.06-130H160l-8.76,17.52-3.35.16A47.51,47.51,0,0,0,110.5,89.07a47.32,47.32,0,1,0,83.6,43.44l1.45-3.58H214.3l-2.69,7.62A65.21,65.21,0,0,1,150.15,180Z"/></svg>